<?xml version="1.0" encoding="UTF-8" standalone="no"?>
<!DOCTYPE svg PUBLIC "-//W3C//DTD SVG 1.1//EN"
 "http://www.w3.org/Graphics/SVG/1.1/DTD/svg11.dtd">
<!-- Generated by graphviz version 2.38.0 (20140413.2041)
 -->
<!-- Title: G Pages: 1 -->
<svg width="4744pt" height="715pt"
 viewBox="0.00 0.00 4743.98 715.00" xmlns="http://www.w3.org/2000/svg" xmlns:xlink="http://www.w3.org/1999/xlink">
<g id="graph0" class="graph" transform="scale(1 1) rotate(0) translate(4 711)">
<title>G</title>
<polygon fill="white" stroke="none" points="-4,4 -4,-711 4739.98,-711 4739.98,4 -4,4"/>
<text text-anchor="middle" x="2367.99" y="-7.8" font-family="Times,serif" font-size="14.00">Dependencies between features and data sources of revscoring</text>
<!-- 0 -->
<g id="node1" class="node"><title>0</title>
<ellipse fill="palegreen" stroke="black" cx="2221.64" cy="-689" rx="101.282" ry="18"/>
<text text-anchor="middle" x="2221.64" y="-685.3" font-family="Times,serif" font-size="14.00">&lt;added_badwords_ratio&gt;</text>
</g>
<!-- 21 -->
<g id="node22" class="node"><title>21</title>
<ellipse fill="palegreen" stroke="black" cx="1911.64" cy="-617" rx="133.776" ry="18"/>
<text text-anchor="middle" x="1911.64" y="-613.3" font-family="Times,serif" font-size="14.00">&lt;proportion_of_badwords_added&gt;</text>
</g>
<!-- 0&#45;&gt;21 -->
<g id="edge1" class="edge"><title>0&#45;&gt;21</title>
<path fill="none" stroke="black" d="M2161.5,-674.42C2111.61,-663.154 2040.41,-647.077 1986.77,-634.965"/>
<polygon fill="black" stroke="black" points="1987.49,-631.54 1976.97,-632.751 1985.95,-638.368 1987.49,-631.54"/>
</g>
<!-- 25 -->
<g id="node26" class="node"><title>25</title>
<ellipse fill="palegreen" stroke="black" cx="2498.64" cy="-617" rx="128.877" ry="18"/>
<text text-anchor="middle" x="2498.64" y="-613.3" font-family="Times,serif" font-size="14.00">&lt;proportion_of_prev_badwords&gt;</text>
</g>
<!-- 0&#45;&gt;25 -->
<g id="edge2" class="edge"><title>0&#45;&gt;25</title>
<path fill="none" stroke="black" d="M2277.36,-673.919C2321.17,-662.849 2382.43,-647.369 2429.39,-635.502"/>
<polygon fill="black" stroke="black" points="2430.34,-638.871 2439.18,-633.027 2428.62,-632.084 2430.34,-638.871"/>
</g>
<!-- 1 -->
<g id="node2" class="node"><title>1</title>
<ellipse fill="palegreen" stroke="black" cx="2484.64" cy="-689" rx="111.581" ry="18"/>
<text text-anchor="middle" x="2484.64" y="-685.3" font-family="Times,serif" font-size="14.00">&lt;added_misspellings_ratio&gt;</text>
</g>
<!-- 23 -->
<g id="node24" class="node"><title>23</title>
<ellipse fill="palegreen" stroke="black" cx="2207.64" cy="-617" rx="144.075" ry="18"/>
<text text-anchor="middle" x="2207.64" y="-613.3" font-family="Times,serif" font-size="14.00">&lt;proportion_of_misspellings_added&gt;</text>
</g>
<!-- 1&#45;&gt;23 -->
<g id="edge3" class="edge"><title>1&#45;&gt;23</title>
<path fill="none" stroke="black" d="M2427.25,-673.496C2383.99,-662.565 2324.44,-647.515 2278.26,-635.845"/>
<polygon fill="black" stroke="black" points="2278.87,-632.391 2268.32,-633.334 2277.16,-639.178 2278.87,-632.391"/>
</g>
<!-- 26 -->
<g id="node27" class="node"><title>26</title>
<ellipse fill="palegreen" stroke="black" cx="2784.64" cy="-617" rx="139.175" ry="18"/>
<text text-anchor="middle" x="2784.64" y="-613.3" font-family="Times,serif" font-size="14.00">&lt;proportion_of_prev_misspellings&gt;</text>
</g>
<!-- 1&#45;&gt;26 -->
<g id="edge4" class="edge"><title>1&#45;&gt;26</title>
<path fill="none" stroke="black" d="M2545.35,-673.834C2593.02,-662.711 2659.61,-647.173 2710.45,-635.312"/>
<polygon fill="black" stroke="black" points="2711.45,-638.672 2720.39,-632.991 2709.86,-631.855 2711.45,-638.672"/>
</g>
<!-- 2 -->
<g id="node3" class="node"><title>2</title>
<ellipse fill="palegreen" stroke="black" cx="2083.64" cy="-545" rx="81.4863" ry="18"/>
<text text-anchor="middle" x="2083.64" y="-541.3" font-family="Times,serif" font-size="14.00">&lt;badwords_added&gt;</text>
</g>
<!-- 40 -->
<g id="node41" class="node"><title>40</title>
<ellipse fill="orange" stroke="black" cx="1343.64" cy="-473" rx="122.678" ry="18"/>
<text text-anchor="middle" x="1343.64" y="-469.3" font-family="Times,serif" font-size="14.00">&lt;contiguous_segments_added&gt;</text>
</g>
<!-- 2&#45;&gt;40 -->
<g id="edge6" class="edge"><title>2&#45;&gt;40</title>
<path fill="none" stroke="black" d="M2026.19,-532.108C2015.41,-530.173 2004.21,-528.36 1993.64,-527 1764.75,-497.532 1705.3,-513.749 1475.64,-491 1464.06,-489.852 1451.92,-488.498 1439.89,-487.062"/>
<polygon fill="black" stroke="black" points="1440.18,-483.572 1429.83,-485.84 1439.34,-490.521 1440.18,-483.572"/>
</g>
<!-- 59 -->
<g id="node60" class="node"><title>59</title>
<ellipse fill="orange" stroke="black" cx="2330.64" cy="-473" rx="42.4939" ry="18"/>
<text text-anchor="middle" x="2330.64" y="-469.3" font-family="Times,serif" font-size="14.00">language</text>
</g>
<!-- 2&#45;&gt;59 -->
<g id="edge5" class="edge"><title>2&#45;&gt;59</title>
<path fill="none" stroke="black" d="M2131.56,-530.42C2176.46,-517.695 2243.03,-498.831 2286.62,-486.476"/>
<polygon fill="black" stroke="black" points="2287.7,-489.808 2296.37,-483.714 2285.79,-483.073 2287.7,-489.808"/>
</g>
<!-- 3 -->
<g id="node4" class="node"><title>3</title>
<ellipse fill="palegreen" stroke="black" cx="3315.64" cy="-401" rx="73.387" ry="18"/>
<text text-anchor="middle" x="3315.64" y="-397.3" font-family="Times,serif" font-size="14.00">&lt;bytes_changed&gt;</text>
</g>
<!-- 46 -->
<g id="node47" class="node"><title>46</title>
<ellipse fill="orange" stroke="black" cx="3166.64" cy="-329" rx="120.779" ry="18"/>
<text text-anchor="middle" x="3166.64" y="-325.3" font-family="Times,serif" font-size="14.00">&lt;previous_revision_metadata&gt;</text>
</g>
<!-- 3&#45;&gt;46 -->
<g id="edge7" class="edge"><title>3&#45;&gt;46</title>
<path fill="none" stroke="black" d="M3283.31,-384.811C3262.02,-374.81 3233.88,-361.59 3210.58,-350.639"/>
<polygon fill="black" stroke="black" points="3211.79,-347.341 3201.25,-346.257 3208.81,-353.677 3211.79,-347.341"/>
</g>
<!-- 52 -->
<g id="node53" class="node"><title>52</title>
<ellipse fill="orange" stroke="black" cx="3563.64" cy="-185" rx="86.3847" ry="18"/>
<text text-anchor="middle" x="3563.64" y="-181.3" font-family="Times,serif" font-size="14.00">&lt;revision_metadata&gt;</text>
</g>
<!-- 3&#45;&gt;52 -->
<g id="edge8" class="edge"><title>3&#45;&gt;52</title>
<path fill="none" stroke="black" d="M3317.24,-382.885C3318.09,-362.688 3316.1,-329.516 3296.64,-311 3224.23,-242.094 3139.42,-351.126 3074.64,-275 3064.27,-262.814 3063.96,-250.908 3074.64,-239 3100.46,-210.237 3334.3,-195.65 3469.04,-189.573"/>
<polygon fill="black" stroke="black" points="3469.53,-193.055 3479.37,-189.116 3469.22,-186.062 3469.53,-193.055"/>
</g>
<!-- 4 -->
<g id="node5" class="node"><title>4</title>
<ellipse fill="palegreen" stroke="black" cx="1044.64" cy="-545" rx="65.7887" ry="18"/>
<text text-anchor="middle" x="1044.64" y="-541.3" font-family="Times,serif" font-size="14.00">&lt;chars_added&gt;</text>
</g>
<!-- 4&#45;&gt;40 -->
<g id="edge9" class="edge"><title>4&#45;&gt;40</title>
<path fill="none" stroke="black" d="M1093.01,-532.675C1141.35,-521.36 1216.23,-503.828 1271.57,-490.873"/>
<polygon fill="black" stroke="black" points="1272.38,-494.279 1281.32,-488.591 1270.78,-487.463 1272.38,-494.279"/>
</g>
<!-- 5 -->
<g id="node6" class="node"><title>5</title>
<ellipse fill="palegreen" stroke="black" cx="3848.64" cy="-257" rx="94.7833" ry="18"/>
<text text-anchor="middle" x="3848.64" y="-253.3" font-family="Times,serif" font-size="14.00">&lt;day_of_week_in_utc&gt;</text>
</g>
<!-- 5&#45;&gt;52 -->
<g id="edge10" class="edge"><title>5&#45;&gt;52</title>
<path fill="none" stroke="black" d="M3793.02,-242.337C3745.43,-230.649 3676.94,-213.827 3627.2,-201.61"/>
<polygon fill="black" stroke="black" points="3627.75,-198.141 3617.2,-199.154 3626.08,-204.939 3627.75,-198.141"/>
</g>
<!-- 6 -->
<g id="node7" class="node"><title>6</title>
<ellipse fill="palegreen" stroke="black" cx="4054.64" cy="-257" rx="92.8835" ry="18"/>
<text text-anchor="middle" x="4054.64" y="-253.3" font-family="Times,serif" font-size="14.00">&lt;hour_of_day_in_utc&gt;</text>
</g>
<!-- 6&#45;&gt;52 -->
<g id="edge11" class="edge"><title>6&#45;&gt;52</title>
<path fill="none" stroke="black" d="M3987.48,-244.514C3975.87,-242.613 3963.91,-240.707 3952.64,-239 3846.87,-222.984 3724.58,-206.684 3645.78,-196.47"/>
<polygon fill="black" stroke="black" points="3645.8,-192.943 3635.43,-195.131 3644.9,-199.885 3645.8,-192.943"/>
</g>
<!-- 7 -->
<g id="node8" class="node"><title>7</title>
<ellipse fill="palegreen" stroke="black" cx="2577.64" cy="-257" rx="100.983" ry="18"/>
<text text-anchor="middle" x="2577.64" y="-253.3" font-family="Times,serif" font-size="14.00">&lt;is_content_namespace&gt;</text>
</g>
<!-- 44 -->
<g id="node45" class="node"><title>44</title>
<ellipse fill="orange" stroke="black" cx="2673.64" cy="-185" rx="63.8893" ry="18"/>
<text text-anchor="middle" x="2673.64" y="-181.3" font-family="Times,serif" font-size="14.00">&lt;namespaces&gt;</text>
</g>
<!-- 7&#45;&gt;44 -->
<g id="edge13" class="edge"><title>7&#45;&gt;44</title>
<path fill="none" stroke="black" d="M2600.39,-239.411C2613.25,-230.036 2629.49,-218.198 2643.4,-208.051"/>
<polygon fill="black" stroke="black" points="2645.7,-210.708 2651.72,-201.988 2641.57,-205.052 2645.7,-210.708"/>
</g>
<!-- 7&#45;&gt;52 -->
<g id="edge12" class="edge"><title>7&#45;&gt;52</title>
<path fill="none" stroke="black" d="M2648.23,-244.099C2661.3,-242.177 2674.87,-240.371 2687.64,-239 2970.78,-208.623 3307.4,-194.352 3468.5,-188.86"/>
<polygon fill="black" stroke="black" points="3468.98,-192.346 3478.86,-188.511 3468.75,-185.35 3468.98,-192.346"/>
</g>
<!-- 8 -->
<g id="node9" class="node"><title>8</title>
<ellipse fill="palegreen" stroke="black" cx="4260.64" cy="-257" rx="95.5831" ry="18"/>
<text text-anchor="middle" x="4260.64" y="-253.3" font-family="Times,serif" font-size="14.00">&lt;is_custom_comment&gt;</text>
</g>
<!-- 8&#45;&gt;52 -->
<g id="edge14" class="edge"><title>8&#45;&gt;52</title>
<path fill="none" stroke="black" d="M4193.06,-244.219C4180.95,-242.319 4168.44,-240.49 4156.64,-239 3979.7,-216.662 3771.9,-200.359 3655.21,-192.104"/>
<polygon fill="black" stroke="black" points="3655.12,-188.588 3644.89,-191.378 3654.62,-195.571 3655.12,-188.588"/>
</g>
<!-- 9 -->
<g id="node10" class="node"><title>9</title>
<ellipse fill="palegreen" stroke="black" cx="3153.64" cy="-257" rx="69.5877" ry="18"/>
<text text-anchor="middle" x="3153.64" y="-253.3" font-family="Times,serif" font-size="14.00">&lt;is_mainspace&gt;</text>
</g>
<!-- 9&#45;&gt;52 -->
<g id="edge15" class="edge"><title>9&#45;&gt;52</title>
<path fill="none" stroke="black" d="M3204.33,-244.52C3213.4,-242.588 3222.79,-240.67 3231.64,-239 3317.71,-222.765 3416.94,-207.354 3484.33,-197.378"/>
<polygon fill="black" stroke="black" points="3485.07,-200.807 3494.46,-195.885 3484.05,-193.882 3485.07,-200.807"/>
</g>
<!-- 10 -->
<g id="node11" class="node"><title>10</title>
<ellipse fill="palegreen" stroke="black" cx="3574.64" cy="-401" rx="103.982" ry="18"/>
<text text-anchor="middle" x="3574.64" y="-397.3" font-family="Times,serif" font-size="14.00">&lt;is_previous_user_same&gt;</text>
</g>
<!-- 10&#45;&gt;46 -->
<g id="edge16" class="edge"><title>10&#45;&gt;46</title>
<path fill="none" stroke="black" d="M3503.57,-387.807C3433.91,-375.854 3327.6,-357.615 3253.08,-344.829"/>
<polygon fill="black" stroke="black" points="3253.23,-341.304 3242.78,-343.063 3252.04,-348.203 3253.23,-341.304"/>
</g>
<!-- 10&#45;&gt;52 -->
<g id="edge17" class="edge"><title>10&#45;&gt;52</title>
<path fill="none" stroke="black" d="M3588.06,-383.031C3609.98,-353.099 3648.83,-289.33 3625.64,-239 3620.08,-226.923 3610.26,-216.576 3600.05,-208.313"/>
<polygon fill="black" stroke="black" points="3601.94,-205.36 3591.85,-202.141 3597.73,-210.952 3601.94,-205.36"/>
</g>
<!-- 11 -->
<g id="node12" class="node"><title>11</title>
<ellipse fill="palegreen" stroke="black" cx="3335.64" cy="-257" rx="94.7833" ry="18"/>
<text text-anchor="middle" x="3335.64" y="-253.3" font-family="Times,serif" font-size="14.00">&lt;is_section_comment&gt;</text>
</g>
<!-- 11&#45;&gt;52 -->
<g id="edge18" class="edge"><title>11&#45;&gt;52</title>
<path fill="none" stroke="black" d="M3383.16,-241.411C3419.34,-230.303 3469.26,-214.979 3507.42,-203.261"/>
<polygon fill="black" stroke="black" points="3508.82,-206.492 3517.35,-200.211 3506.77,-199.801 3508.82,-206.492"/>
</g>
<!-- 12 -->
<g id="node13" class="node"><title>12</title>
<ellipse fill="palegreen" stroke="black" cx="1704.64" cy="-545" rx="126.178" ry="18"/>
<text text-anchor="middle" x="1704.64" y="-541.3" font-family="Times,serif" font-size="14.00">&lt;longest_repeated_char_added&gt;</text>
</g>
<!-- 12&#45;&gt;40 -->
<g id="edge19" class="edge"><title>12&#45;&gt;40</title>
<path fill="none" stroke="black" d="M1632.89,-530.087C1572.77,-518.43 1487,-501.798 1424.47,-489.673"/>
<polygon fill="black" stroke="black" points="1425.13,-486.235 1414.65,-487.768 1423.8,-493.107 1425.13,-486.235"/>
</g>
<!-- 13 -->
<g id="node14" class="node"><title>13</title>
<ellipse fill="palegreen" stroke="black" cx="286.643" cy="-473" rx="96.3833" ry="18"/>
<text text-anchor="middle" x="286.643" y="-469.3" font-family="Times,serif" font-size="14.00">&lt;longest_token_added&gt;</text>
</g>
<!-- 51 -->
<g id="node52" class="node"><title>51</title>
<ellipse fill="orange" stroke="black" cx="1343.64" cy="-401" rx="66.8882" ry="18"/>
<text text-anchor="middle" x="1343.64" y="-397.3" font-family="Times,serif" font-size="14.00">&lt;revision_diff&gt;</text>
</g>
<!-- 13&#45;&gt;51 -->
<g id="edge20" class="edge"><title>13&#45;&gt;51</title>
<path fill="none" stroke="black" d="M353.718,-460.066C366.289,-458.135 379.343,-456.334 391.643,-455 715.721,-419.842 1104.54,-407.412 1266.73,-403.548"/>
<polygon fill="black" stroke="black" points="1267.17,-407.039 1277.08,-403.305 1267,-400.04 1267.17,-407.039"/>
</g>
<!-- 14 -->
<g id="node15" class="node"><title>14</title>
<ellipse fill="palegreen" stroke="black" cx="648.643" cy="-545" rx="96.6831" ry="18"/>
<text text-anchor="middle" x="648.643" y="-541.3" font-family="Times,serif" font-size="14.00">&lt;markup_chars_added&gt;</text>
</g>
<!-- 14&#45;&gt;40 -->
<g id="edge21" class="edge"><title>14&#45;&gt;40</title>
<path fill="none" stroke="black" d="M716.955,-532.215C729.467,-530.293 742.429,-528.457 754.643,-527 957.389,-502.814 1009.56,-512.145 1212.64,-491 1223.85,-489.834 1235.57,-488.489 1247.21,-487.078"/>
<polygon fill="black" stroke="black" points="1247.9,-490.519 1257.39,-485.823 1247.04,-483.572 1247.9,-490.519"/>
</g>
<!-- 15 -->
<g id="node16" class="node"><title>15</title>
<ellipse fill="palegreen" stroke="black" cx="2273.64" cy="-545" rx="90.9839" ry="18"/>
<text text-anchor="middle" x="2273.64" y="-541.3" font-family="Times,serif" font-size="14.00">&lt;misspellings_added&gt;</text>
</g>
<!-- 15&#45;&gt;40 -->
<g id="edge23" class="edge"><title>15&#45;&gt;40</title>
<path fill="none" stroke="black" d="M2210.05,-532.044C2197.99,-530.103 2185.46,-528.304 2173.64,-527 1864.88,-492.911 1785.03,-518.86 1475.64,-491 1463.87,-489.94 1451.52,-488.624 1439.31,-487.197"/>
<polygon fill="black" stroke="black" points="1439.45,-483.688 1429.1,-485.976 1438.61,-490.639 1439.45,-483.688"/>
</g>
<!-- 15&#45;&gt;59 -->
<g id="edge22" class="edge"><title>15&#45;&gt;59</title>
<path fill="none" stroke="black" d="M2287.44,-527.055C2294.47,-518.418 2303.15,-507.76 2310.88,-498.268"/>
<polygon fill="black" stroke="black" points="2313.76,-500.271 2317.36,-490.307 2308.34,-495.851 2313.76,-500.271"/>
</g>
<!-- 16 -->
<g id="node17" class="node"><title>16</title>
<ellipse fill="palegreen" stroke="black" cx="862.643" cy="-545" rx="98.5829" ry="18"/>
<text text-anchor="middle" x="862.643" y="-541.3" font-family="Times,serif" font-size="14.00">&lt;numeric_chars_added&gt;</text>
</g>
<!-- 16&#45;&gt;40 -->
<g id="edge24" class="edge"><title>16&#45;&gt;40</title>
<path fill="none" stroke="black" d="M933.986,-532.494C945.888,-530.624 958.111,-528.733 969.643,-527 1063.83,-512.846 1171.51,-497.694 1247.07,-487.232"/>
<polygon fill="black" stroke="black" points="1247.63,-490.689 1257.05,-485.851 1246.67,-483.755 1247.63,-490.689"/>
</g>
<!-- 17 -->
<g id="node18" class="node"><title>17</title>
<ellipse fill="palegreen" stroke="black" cx="3826.64" cy="-401" rx="98.2828" ry="18"/>
<text text-anchor="middle" x="3826.64" y="-397.3" font-family="Times,serif" font-size="14.00">&lt;page_age_in_seconds&gt;</text>
</g>
<!-- 43 -->
<g id="node44" class="node"><title>43</title>
<ellipse fill="orange" stroke="black" cx="4114.64" cy="-329" rx="104.782" ry="18"/>
<text text-anchor="middle" x="4114.64" y="-325.3" font-family="Times,serif" font-size="14.00">&lt;first_revision_metadata&gt;</text>
</g>
<!-- 17&#45;&gt;43 -->
<g id="edge25" class="edge"><title>17&#45;&gt;43</title>
<path fill="none" stroke="black" d="M3883.2,-386.254C3930.19,-374.832 3997.18,-358.549 4047.01,-346.438"/>
<polygon fill="black" stroke="black" points="4047.85,-349.837 4056.74,-344.074 4046.19,-343.035 4047.85,-349.837"/>
</g>
<!-- 17&#45;&gt;52 -->
<g id="edge26" class="edge"><title>17&#45;&gt;52</title>
<path fill="none" stroke="black" d="M3779.18,-385.152C3756.94,-376.533 3731.11,-363.975 3711.64,-347 3668.71,-309.567 3682.47,-279.725 3642.64,-239 3630.9,-226.989 3616.01,-216.155 3602.34,-207.459"/>
<polygon fill="black" stroke="black" points="3603.92,-204.325 3593.57,-202.063 3600.25,-210.286 3603.92,-204.325"/>
</g>
<!-- 18 -->
<g id="node19" class="node"><title>18</title>
<ellipse fill="palegreen" stroke="black" cx="2457.64" cy="-545" rx="75.2868" ry="18"/>
<text text-anchor="middle" x="2457.64" y="-541.3" font-family="Times,serif" font-size="14.00">&lt;prev_badwords&gt;</text>
</g>
<!-- 53 -->
<g id="node54" class="node"><title>53</title>
<ellipse fill="orange" stroke="black" cx="2457.64" cy="-329" rx="67.6881" ry="18"/>
<text text-anchor="middle" x="2457.64" y="-325.3" font-family="Times,serif" font-size="14.00">&lt;revision_text&gt;</text>
</g>
<!-- 18&#45;&gt;53 -->
<g id="edge28" class="edge"><title>18&#45;&gt;53</title>
<path fill="none" stroke="black" d="M2457.64,-526.849C2457.64,-489.832 2457.64,-402.181 2457.64,-357.386"/>
<polygon fill="black" stroke="black" points="2461.14,-357.232 2457.64,-347.232 2454.14,-357.232 2461.14,-357.232"/>
</g>
<!-- 18&#45;&gt;59 -->
<g id="edge27" class="edge"><title>18&#45;&gt;59</title>
<path fill="none" stroke="black" d="M2429.14,-528.291C2409.99,-517.734 2384.66,-503.772 2364.48,-492.651"/>
<polygon fill="black" stroke="black" points="2366.06,-489.526 2355.61,-487.764 2362.68,-495.656 2366.06,-489.526"/>
</g>
<!-- 19 -->
<g id="node20" class="node"><title>19</title>
<ellipse fill="palegreen" stroke="black" cx="2780.64" cy="-545" rx="85.5853" ry="18"/>
<text text-anchor="middle" x="2780.64" y="-541.3" font-family="Times,serif" font-size="14.00">&lt;prev_misspellings&gt;</text>
</g>
<!-- 19&#45;&gt;53 -->
<g id="edge30" class="edge"><title>19&#45;&gt;53</title>
<path fill="none" stroke="black" d="M2756.1,-527.74C2698.59,-489.638 2555.11,-394.574 2490.31,-351.645"/>
<polygon fill="black" stroke="black" points="2491.98,-348.55 2481.71,-345.944 2488.11,-354.385 2491.98,-348.55"/>
</g>
<!-- 19&#45;&gt;59 -->
<g id="edge29" class="edge"><title>19&#45;&gt;59</title>
<path fill="none" stroke="black" d="M2718.34,-532.586C2707.45,-530.667 2696.22,-528.736 2685.64,-527 2576.85,-509.149 2448.88,-490.658 2380.2,-480.938"/>
<polygon fill="black" stroke="black" points="2380.49,-477.445 2370.1,-479.511 2379.51,-484.376 2380.49,-477.445"/>
</g>
<!-- 20 -->
<g id="node21" class="node"><title>20</title>
<ellipse fill="palegreen" stroke="black" cx="2613.64" cy="-545" rx="63.0888" ry="18"/>
<text text-anchor="middle" x="2613.64" y="-541.3" font-family="Times,serif" font-size="14.00">&lt;prev_words&gt;</text>
</g>
<!-- 20&#45;&gt;53 -->
<g id="edge31" class="edge"><title>20&#45;&gt;53</title>
<path fill="none" stroke="black" d="M2598.61,-527.173C2589.64,-516.929 2578.19,-503.456 2568.64,-491 2532.97,-444.442 2494.9,-387.402 2473.9,-355.23"/>
<polygon fill="black" stroke="black" points="2476.84,-353.321 2468.45,-346.845 2470.97,-357.137 2476.84,-353.321"/>
</g>
<!-- 21&#45;&gt;2 -->
<g id="edge33" class="edge"><title>21&#45;&gt;2</title>
<path fill="none" stroke="black" d="M1951.54,-599.765C1977.08,-589.369 2010.33,-575.838 2037.08,-564.951"/>
<polygon fill="black" stroke="black" points="2038.67,-568.082 2046.61,-561.071 2036.03,-561.598 2038.67,-568.082"/>
</g>
<!-- 38 -->
<g id="node39" class="node"><title>38</title>
<ellipse fill="palegreen" stroke="black" cx="1916.64" cy="-545" rx="68.4888" ry="18"/>
<text text-anchor="middle" x="1916.64" y="-541.3" font-family="Times,serif" font-size="14.00">&lt;words_added&gt;</text>
</g>
<!-- 21&#45;&gt;38 -->
<g id="edge32" class="edge"><title>21&#45;&gt;38</title>
<path fill="none" stroke="black" d="M1912.88,-598.697C1913.43,-590.983 1914.09,-581.712 1914.71,-573.112"/>
<polygon fill="black" stroke="black" points="1918.2,-573.328 1915.42,-563.104 1911.22,-572.83 1918.2,-573.328"/>
</g>
<!-- 22 -->
<g id="node23" class="node"><title>22</title>
<ellipse fill="palegreen" stroke="black" cx="631.643" cy="-617" rx="127.277" ry="18"/>
<text text-anchor="middle" x="631.643" y="-613.3" font-family="Times,serif" font-size="14.00">&lt;proportion_of_markup_added&gt;</text>
</g>
<!-- 22&#45;&gt;4 -->
<g id="edge34" class="edge"><title>22&#45;&gt;4</title>
<path fill="none" stroke="black" d="M719.738,-603.97C788.337,-594.182 885.83,-579.351 970.643,-563 975.982,-561.971 981.522,-560.832 987.059,-559.645"/>
<polygon fill="black" stroke="black" points="987.961,-563.031 996.98,-557.471 986.462,-556.193 987.961,-563.031"/>
</g>
<!-- 22&#45;&gt;14 -->
<g id="edge35" class="edge"><title>22&#45;&gt;14</title>
<path fill="none" stroke="black" d="M635.845,-598.697C637.739,-590.898 640.02,-581.509 642.127,-572.829"/>
<polygon fill="black" stroke="black" points="645.53,-573.648 644.489,-563.104 638.728,-571.996 645.53,-573.648"/>
</g>
<!-- 23&#45;&gt;15 -->
<g id="edge37" class="edge"><title>23&#45;&gt;15</title>
<path fill="none" stroke="black" d="M2223.62,-599.055C2231.81,-590.371 2241.92,-579.644 2250.91,-570.114"/>
<polygon fill="black" stroke="black" points="2253.5,-572.466 2257.81,-562.789 2248.41,-567.664 2253.5,-572.466"/>
</g>
<!-- 23&#45;&gt;38 -->
<g id="edge36" class="edge"><title>23&#45;&gt;38</title>
<path fill="none" stroke="black" d="M2144.5,-600.811C2094.14,-588.698 2024.16,-571.864 1975.09,-560.058"/>
<polygon fill="black" stroke="black" points="1975.79,-556.629 1965.25,-557.693 1974.16,-563.435 1975.79,-556.629"/>
</g>
<!-- 24 -->
<g id="node25" class="node"><title>24</title>
<ellipse fill="palegreen" stroke="black" cx="906.643" cy="-617" rx="129.177" ry="18"/>
<text text-anchor="middle" x="906.643" y="-613.3" font-family="Times,serif" font-size="14.00">&lt;proportion_of_numeric_added&gt;</text>
</g>
<!-- 24&#45;&gt;4 -->
<g id="edge38" class="edge"><title>24&#45;&gt;4</title>
<path fill="none" stroke="black" d="M939.347,-599.411C959.204,-589.339 984.667,-576.422 1005.58,-565.815"/>
<polygon fill="black" stroke="black" points="1007.2,-568.919 1014.53,-561.274 1004.03,-562.676 1007.2,-568.919"/>
</g>
<!-- 24&#45;&gt;16 -->
<g id="edge39" class="edge"><title>24&#45;&gt;16</title>
<path fill="none" stroke="black" d="M895.992,-599.055C890.88,-590.922 884.642,-580.998 878.95,-571.943"/>
<polygon fill="black" stroke="black" points="881.787,-569.879 873.502,-563.275 875.86,-573.604 881.787,-569.879"/>
</g>
<!-- 25&#45;&gt;18 -->
<g id="edge41" class="edge"><title>25&#45;&gt;18</title>
<path fill="none" stroke="black" d="M2488.51,-598.697C2483.79,-590.644 2478.08,-580.894 2472.86,-571.982"/>
<polygon fill="black" stroke="black" points="2475.74,-569.964 2467.66,-563.104 2469.7,-573.502 2475.74,-569.964"/>
</g>
<!-- 25&#45;&gt;20 -->
<g id="edge40" class="edge"><title>25&#45;&gt;20</title>
<path fill="none" stroke="black" d="M2526.19,-599.233C2542.15,-589.52 2562.37,-577.208 2579.35,-566.872"/>
<polygon fill="black" stroke="black" points="2581.18,-569.86 2587.9,-561.671 2577.54,-563.88 2581.18,-569.86"/>
</g>
<!-- 26&#45;&gt;19 -->
<g id="edge43" class="edge"><title>26&#45;&gt;19</title>
<path fill="none" stroke="black" d="M2783.65,-598.697C2783.21,-590.983 2782.68,-581.712 2782.19,-573.112"/>
<polygon fill="black" stroke="black" points="2785.69,-572.888 2781.62,-563.104 2778.7,-573.288 2785.69,-572.888"/>
</g>
<!-- 26&#45;&gt;20 -->
<g id="edge42" class="edge"><title>26&#45;&gt;20</title>
<path fill="none" stroke="black" d="M2744.55,-599.588C2718.53,-588.935 2684.6,-575.045 2657.8,-564.076"/>
<polygon fill="black" stroke="black" points="2658.86,-560.728 2648.28,-560.179 2656.21,-567.206 2658.86,-560.728"/>
</g>
<!-- 27 -->
<g id="node28" class="node"><title>27</title>
<ellipse fill="palegreen" stroke="black" cx="1186.64" cy="-617" rx="132.677" ry="18"/>
<text text-anchor="middle" x="1186.64" y="-613.3" font-family="Times,serif" font-size="14.00">&lt;proportion_of_symbolic_added&gt;</text>
</g>
<!-- 27&#45;&gt;4 -->
<g id="edge44" class="edge"><title>27&#45;&gt;4</title>
<path fill="none" stroke="black" d="M1152.99,-599.411C1132.42,-589.268 1105.99,-576.242 1084.39,-565.593"/>
<polygon fill="black" stroke="black" points="1085.67,-562.321 1075.15,-561.038 1082.57,-568.599 1085.67,-562.321"/>
</g>
<!-- 33 -->
<g id="node34" class="node"><title>33</title>
<ellipse fill="palegreen" stroke="black" cx="1230.64" cy="-545" rx="102.882" ry="18"/>
<text text-anchor="middle" x="1230.64" y="-541.3" font-family="Times,serif" font-size="14.00">&lt;symbolic_chars_added&gt;</text>
</g>
<!-- 27&#45;&gt;33 -->
<g id="edge45" class="edge"><title>27&#45;&gt;33</title>
<path fill="none" stroke="black" d="M1197.29,-599.055C1202.41,-590.922 1208.64,-580.998 1214.34,-571.943"/>
<polygon fill="black" stroke="black" points="1217.43,-573.604 1219.78,-563.275 1211.5,-569.879 1217.43,-573.604"/>
</g>
<!-- 28 -->
<g id="node29" class="node"><title>28</title>
<ellipse fill="palegreen" stroke="black" cx="1472.64" cy="-617" rx="135.376" ry="18"/>
<text text-anchor="middle" x="1472.64" y="-613.3" font-family="Times,serif" font-size="14.00">&lt;proportion_of_uppercase_added&gt;</text>
</g>
<!-- 28&#45;&gt;4 -->
<g id="edge46" class="edge"><title>28&#45;&gt;4</title>
<path fill="none" stroke="black" d="M1378.77,-603.956C1307.23,-594.292 1206.41,-579.626 1118.64,-563 1113.3,-561.988 1107.76,-560.861 1102.22,-559.682"/>
<polygon fill="black" stroke="black" points="1102.81,-556.229 1092.3,-557.517 1101.32,-563.068 1102.81,-556.229"/>
</g>
<!-- 34 -->
<g id="node35" class="node"><title>34</title>
<ellipse fill="palegreen" stroke="black" cx="1455.64" cy="-545" rx="104.782" ry="18"/>
<text text-anchor="middle" x="1455.64" y="-541.3" font-family="Times,serif" font-size="14.00">&lt;uppercase_chars_added&gt;</text>
</g>
<!-- 28&#45;&gt;34 -->
<g id="edge47" class="edge"><title>28&#45;&gt;34</title>
<path fill="none" stroke="black" d="M1468.44,-598.697C1466.55,-590.898 1464.27,-581.509 1462.16,-572.829"/>
<polygon fill="black" stroke="black" points="1465.56,-571.996 1459.8,-563.104 1458.76,-573.648 1465.56,-571.996"/>
</g>
<!-- 29 -->
<g id="node30" class="node"><title>29</title>
<ellipse fill="palegreen" stroke="black" cx="3097.64" cy="-401" rx="126.978" ry="18"/>
<text text-anchor="middle" x="3097.64" y="-397.3" font-family="Times,serif" font-size="14.00">&lt;seconds_since_last_page_edit&gt;</text>
</g>
<!-- 29&#45;&gt;46 -->
<g id="edge48" class="edge"><title>29&#45;&gt;46</title>
<path fill="none" stroke="black" d="M3114.35,-383.055C3122.78,-374.498 3133.17,-363.959 3142.46,-354.535"/>
<polygon fill="black" stroke="black" points="3145.09,-356.854 3149.61,-347.275 3140.1,-351.94 3145.09,-356.854"/>
</g>
<!-- 29&#45;&gt;52 -->
<g id="edge49" class="edge"><title>29&#45;&gt;52</title>
<path fill="none" stroke="black" d="M3069.24,-383.302C3056.78,-374.289 3043.45,-361.935 3036.64,-347 3016.16,-302.077 3023.79,-269.458 3062.64,-239 3094,-214.423 3334.47,-197.984 3470.54,-190.548"/>
<polygon fill="black" stroke="black" points="3470.75,-194.041 3480.55,-190.006 3470.38,-187.051 3470.75,-194.041"/>
</g>
<!-- 30 -->
<g id="node31" class="node"><title>30</title>
<ellipse fill="palegreen" stroke="black" cx="4286.64" cy="-401" rx="124.578" ry="18"/>
<text text-anchor="middle" x="4286.64" y="-397.3" font-family="Times,serif" font-size="14.00">&lt;seconds_since_last_user_edit&gt;</text>
</g>
<!-- 49 -->
<g id="node50" class="node"><title>49</title>
<ellipse fill="orange" stroke="black" cx="4504.64" cy="-329" rx="139.976" ry="18"/>
<text text-anchor="middle" x="4504.64" y="-325.3" font-family="Times,serif" font-size="14.00">&lt;previous_user_revision_metadata&gt;</text>
</g>
<!-- 30&#45;&gt;49 -->
<g id="edge50" class="edge"><title>30&#45;&gt;49</title>
<path fill="none" stroke="black" d="M4335.3,-384.378C4367.73,-373.962 4410.58,-360.204 4445.06,-349.132"/>
<polygon fill="black" stroke="black" points="4446.56,-352.328 4455.01,-345.938 4444.42,-345.663 4446.56,-352.328"/>
</g>
<!-- 30&#45;&gt;52 -->
<g id="edge51" class="edge"><title>30&#45;&gt;52</title>
<path fill="none" stroke="black" d="M4200.92,-387.786C4092.22,-370.603 3900.21,-334.551 3744.64,-275 3730.51,-269.59 3652.94,-230.908 3604.04,-206.353"/>
<polygon fill="black" stroke="black" points="3605.48,-203.157 3594.97,-201.794 3602.34,-209.411 3605.48,-203.157"/>
</g>
<!-- 31 -->
<g id="node32" class="node"><title>31</title>
<ellipse fill="palegreen" stroke="black" cx="453.643" cy="-545" rx="79.8859" ry="18"/>
<text text-anchor="middle" x="453.643" y="-541.3" font-family="Times,serif" font-size="14.00">&lt;segments_added&gt;</text>
</g>
<!-- 31&#45;&gt;40 -->
<g id="edge52" class="edge"><title>31&#45;&gt;40</title>
<path fill="none" stroke="black" d="M509.961,-532.054C520.768,-530.099 532.025,-528.293 542.643,-527 838.662,-490.943 915.679,-518.208 1212.64,-491 1224.24,-489.937 1236.39,-488.628 1248.42,-487.21"/>
<polygon fill="black" stroke="black" points="1248.97,-490.669 1258.48,-485.997 1248.13,-483.719 1248.97,-490.669"/>
</g>
<!-- 32 -->
<g id="node33" class="node"><title>32</title>
<ellipse fill="palegreen" stroke="black" cx="265.643" cy="-545" rx="90.1842" ry="18"/>
<text text-anchor="middle" x="265.643" y="-541.3" font-family="Times,serif" font-size="14.00">&lt;segments_removed&gt;</text>
</g>
<!-- 41 -->
<g id="node42" class="node"><title>41</title>
<ellipse fill="orange" stroke="black" cx="533.643" cy="-473" rx="133.477" ry="18"/>
<text text-anchor="middle" x="533.643" y="-469.3" font-family="Times,serif" font-size="14.00">&lt;contiguous_segments_removed&gt;</text>
</g>
<!-- 32&#45;&gt;41 -->
<g id="edge53" class="edge"><title>32&#45;&gt;41</title>
<path fill="none" stroke="black" d="M318.271,-530.254C360.309,-519.274 419.541,-503.803 465.251,-491.863"/>
<polygon fill="black" stroke="black" points="466.292,-495.209 475.083,-489.296 464.523,-488.436 466.292,-495.209"/>
</g>
<!-- 33&#45;&gt;40 -->
<g id="edge54" class="edge"><title>33&#45;&gt;40</title>
<path fill="none" stroke="black" d="M1257.14,-527.588C1272.22,-518.246 1291.32,-506.414 1307.73,-496.247"/>
<polygon fill="black" stroke="black" points="1309.87,-499.037 1316.53,-490.795 1306.19,-493.086 1309.87,-499.037"/>
</g>
<!-- 34&#45;&gt;40 -->
<g id="edge55" class="edge"><title>34&#45;&gt;40</title>
<path fill="none" stroke="black" d="M1429.1,-527.411C1414.15,-518.064 1395.27,-506.268 1379.07,-496.141"/>
<polygon fill="black" stroke="black" points="1380.72,-493.045 1370.38,-490.713 1377.01,-498.981 1380.72,-493.045"/>
</g>
<!-- 35 -->
<g id="node36" class="node"><title>35</title>
<ellipse fill="palegreen" stroke="black" cx="2856.64" cy="-401" rx="96.3833" ry="18"/>
<text text-anchor="middle" x="2856.64" y="-397.3" font-family="Times,serif" font-size="14.00">&lt;user_age_in_seconds&gt;</text>
</g>
<!-- 35&#45;&gt;52 -->
<g id="edge57" class="edge"><title>35&#45;&gt;52</title>
<path fill="none" stroke="black" d="M2881.89,-383.472C2915.6,-362.382 2977.88,-326.752 3036.64,-311 3096.44,-294.97 3550.31,-320.167 3592.64,-275 3609,-257.545 3596.96,-230.734 3583.77,-211.099"/>
<polygon fill="black" stroke="black" points="3586.58,-209.016 3577.92,-202.908 3580.88,-213.081 3586.58,-209.016"/>
</g>
<!-- 58 -->
<g id="node59" class="node"><title>58</title>
<ellipse fill="orange" stroke="black" cx="2749.64" cy="-329" rx="54.6905" ry="18"/>
<text text-anchor="middle" x="2749.64" y="-325.3" font-family="Times,serif" font-size="14.00">&lt;user_info&gt;</text>
</g>
<!-- 35&#45;&gt;58 -->
<g id="edge56" class="edge"><title>35&#45;&gt;58</title>
<path fill="none" stroke="black" d="M2831.56,-383.588C2816.65,-373.837 2797.6,-361.373 2781.62,-350.921"/>
<polygon fill="black" stroke="black" points="2783.39,-347.896 2773.11,-345.35 2779.56,-353.754 2783.39,-347.896"/>
</g>
<!-- 36 -->
<g id="node37" class="node"><title>36</title>
<ellipse fill="palegreen" stroke="black" cx="3515.64" cy="-257" rx="67.6881" ry="18"/>
<text text-anchor="middle" x="3515.64" y="-253.3" font-family="Times,serif" font-size="14.00">&lt;user_is_anon&gt;</text>
</g>
<!-- 36&#45;&gt;52 -->
<g id="edge58" class="edge"><title>36&#45;&gt;52</title>
<path fill="none" stroke="black" d="M3527.26,-239.055C3532.9,-230.837 3539.79,-220.791 3546.05,-211.66"/>
<polygon fill="black" stroke="black" points="3549.03,-213.502 3551.8,-203.275 3543.26,-209.543 3549.03,-213.502"/>
</g>
<!-- 37 -->
<g id="node38" class="node"><title>37</title>
<ellipse fill="palegreen" stroke="black" cx="2680.64" cy="-401" rx="61.99" ry="18"/>
<text text-anchor="middle" x="2680.64" y="-397.3" font-family="Times,serif" font-size="14.00">&lt;user_is_bot&gt;</text>
</g>
<!-- 37&#45;&gt;58 -->
<g id="edge59" class="edge"><title>37&#45;&gt;58</title>
<path fill="none" stroke="black" d="M2697,-383.411C2705.76,-374.519 2716.71,-363.411 2726.35,-353.631"/>
<polygon fill="black" stroke="black" points="2728.88,-356.049 2733.41,-346.47 2723.9,-351.135 2728.88,-356.049"/>
</g>
<!-- 38&#45;&gt;40 -->
<g id="edge60" class="edge"><title>38&#45;&gt;40</title>
<path fill="none" stroke="black" d="M1867.93,-532.33C1858.58,-530.35 1848.84,-528.464 1839.64,-527 1679.1,-501.431 1637.17,-509.385 1475.64,-491 1464.55,-489.737 1452.93,-488.345 1441.39,-486.917"/>
<polygon fill="black" stroke="black" points="1441.64,-483.421 1431.29,-485.656 1440.78,-490.367 1441.64,-483.421"/>
</g>
<!-- 39 -->
<g id="node40" class="node"><title>39</title>
<ellipse fill="palegreen" stroke="black" cx="78.643" cy="-545" rx="78.7863" ry="18"/>
<text text-anchor="middle" x="78.643" y="-541.3" font-family="Times,serif" font-size="14.00">&lt;words_removed&gt;</text>
</g>
<!-- 39&#45;&gt;41 -->
<g id="edge61" class="edge"><title>39&#45;&gt;41</title>
<path fill="none" stroke="black" d="M135.849,-532.541C146.088,-530.607 156.67,-528.682 166.643,-527 255.766,-511.965 357.516,-497.48 431.239,-487.464"/>
<polygon fill="black" stroke="black" points="432.012,-490.892 441.451,-486.081 431.072,-483.955 432.012,-490.892"/>
</g>
<!-- 40&#45;&gt;51 -->
<g id="edge62" class="edge"><title>40&#45;&gt;51</title>
<path fill="none" stroke="black" d="M1343.64,-454.697C1343.64,-446.983 1343.64,-437.712 1343.64,-429.112"/>
<polygon fill="black" stroke="black" points="1347.14,-429.104 1343.64,-419.104 1340.14,-429.104 1347.14,-429.104"/>
</g>
<!-- 41&#45;&gt;51 -->
<g id="edge63" class="edge"><title>41&#45;&gt;51</title>
<path fill="none" stroke="black" d="M642.463,-462.596C810.369,-448.085 1128.12,-420.626 1270.92,-408.285"/>
<polygon fill="black" stroke="black" points="1271.23,-411.771 1280.9,-407.423 1270.63,-404.797 1271.23,-411.771"/>
</g>
<!-- 42 -->
<g id="node43" class="node"><title>42</title>
<ellipse fill="orange" stroke="black" cx="4442.64" cy="-257" rx="68.4888" ry="18"/>
<text text-anchor="middle" x="4442.64" y="-253.3" font-family="Times,serif" font-size="14.00">&lt;first_rev_doc&gt;</text>
</g>
<!-- 42&#45;&gt;52 -->
<g id="edge65" class="edge"><title>42&#45;&gt;52</title>
<path fill="none" stroke="black" d="M4394.38,-244.174C4384.9,-242.183 4374.99,-240.333 4365.64,-239 4112.44,-202.895 3810.69,-191.322 3659.71,-187.66"/>
<polygon fill="black" stroke="black" points="3659.62,-184.157 3649.54,-187.42 3659.46,-191.155 3659.62,-184.157"/>
</g>
<!-- 60 -->
<g id="node61" class="node"><title>60</title>
<ellipse fill="orange" stroke="black" cx="2886.64" cy="-41" rx="36.2938" ry="18"/>
<text text-anchor="middle" x="2886.64" y="-37.3" font-family="Times,serif" font-size="14.00">session</text>
</g>
<!-- 42&#45;&gt;60 -->
<g id="edge64" class="edge"><title>42&#45;&gt;60</title>
<path fill="none" stroke="black" d="M4393.47,-244.493C4384.25,-242.521 4374.68,-240.596 4365.64,-239 3803.56,-139.703 3113.35,-65.3927 2932.01,-46.6207"/>
<polygon fill="black" stroke="black" points="2932.33,-43.1358 2922.02,-45.5905 2931.61,-50.0988 2932.33,-43.1358"/>
</g>
<!-- 43&#45;&gt;42 -->
<g id="edge66" class="edge"><title>43&#45;&gt;42</title>
<path fill="none" stroke="black" d="M4178.38,-314.71C4229.13,-304.087 4301.98,-288.75 4365.64,-275 4371,-273.844 4376.56,-272.634 4382.13,-271.416"/>
<polygon fill="black" stroke="black" points="4383.11,-274.784 4392.13,-269.223 4381.61,-267.946 4383.11,-274.784"/>
</g>
<!-- 54 -->
<g id="node55" class="node"><title>54</title>
<ellipse fill="orange" stroke="black" cx="2769.64" cy="-113" rx="69.5877" ry="18"/>
<text text-anchor="middle" x="2769.64" y="-109.3" font-family="Times,serif" font-size="14.00">&lt;site_info_doc&gt;</text>
</g>
<!-- 44&#45;&gt;54 -->
<g id="edge67" class="edge"><title>44&#45;&gt;54</title>
<path fill="none" stroke="black" d="M2695.91,-167.765C2708.75,-158.4 2725.09,-146.49 2739.11,-136.261"/>
<polygon fill="black" stroke="black" points="2741.48,-138.867 2747.5,-130.147 2737.36,-133.211 2741.48,-138.867"/>
</g>
<!-- 45 -->
<g id="node46" class="node"><title>45</title>
<ellipse fill="orange" stroke="black" cx="2905.64" cy="-257" rx="84.485" ry="18"/>
<text text-anchor="middle" x="2905.64" y="-253.3" font-family="Times,serif" font-size="14.00">&lt;previous_rev_doc&gt;</text>
</g>
<!-- 45&#45;&gt;52 -->
<g id="edge69" class="edge"><title>45&#45;&gt;52</title>
<path fill="none" stroke="black" d="M2966.96,-244.614C2979.09,-242.573 2991.75,-240.592 3003.64,-239 3168.61,-216.919 3362.12,-200.748 3473.06,-192.405"/>
<polygon fill="black" stroke="black" points="3473.49,-195.882 3483.2,-191.647 3472.97,-188.902 3473.49,-195.882"/>
</g>
<!-- 45&#45;&gt;60 -->
<g id="edge68" class="edge"><title>45&#45;&gt;60</title>
<path fill="none" stroke="black" d="M2904.12,-238.849C2900.83,-201.832 2893.05,-114.181 2889.07,-69.3863"/>
<polygon fill="black" stroke="black" points="2892.54,-68.8837 2888.17,-59.2325 2885.57,-69.5028 2892.54,-68.8837"/>
</g>
<!-- 46&#45;&gt;45 -->
<g id="edge70" class="edge"><title>46&#45;&gt;45</title>
<path fill="none" stroke="black" d="M3110.65,-312.983C3068.13,-301.579 3009.74,-285.917 2966.14,-274.226"/>
<polygon fill="black" stroke="black" points="2966.8,-270.78 2956.24,-271.57 2964.99,-277.541 2966.8,-270.78"/>
</g>
<!-- 47 -->
<g id="node48" class="node"><title>47</title>
<ellipse fill="orange" stroke="black" cx="1862.64" cy="-329" rx="102.082" ry="18"/>
<text text-anchor="middle" x="1862.64" y="-325.3" font-family="Times,serif" font-size="14.00">&lt;previous_revision_text&gt;</text>
</g>
<!-- 47&#45;&gt;45 -->
<g id="edge71" class="edge"><title>47&#45;&gt;45</title>
<path fill="none" stroke="black" d="M1963.77,-326.435C2137.63,-322.833 2504.17,-311.25 2811.64,-275 2819.66,-274.054 2828.03,-272.853 2836.33,-271.528"/>
<polygon fill="black" stroke="black" points="2837.1,-274.949 2846.39,-269.859 2835.95,-268.044 2837.1,-274.949"/>
</g>
<!-- 48 -->
<g id="node49" class="node"><title>48</title>
<ellipse fill="orange" stroke="black" cx="4632.64" cy="-257" rx="103.182" ry="18"/>
<text text-anchor="middle" x="4632.64" y="-253.3" font-family="Times,serif" font-size="14.00">&lt;previous_user_rev_doc&gt;</text>
</g>
<!-- 48&#45;&gt;52 -->
<g id="edge73" class="edge"><title>48&#45;&gt;52</title>
<path fill="none" stroke="black" d="M4560.43,-244.105C4546.91,-242.17 4532.87,-240.358 4519.64,-239 4205.52,-206.736 3831.17,-193.171 3658.95,-188.32"/>
<polygon fill="black" stroke="black" points="3659,-184.82 3648.9,-188.04 3658.8,-191.817 3659,-184.82"/>
</g>
<!-- 48&#45;&gt;60 -->
<g id="edge72" class="edge"><title>48&#45;&gt;60</title>
<path fill="none" stroke="black" d="M4558.35,-244.365C4447.3,-227.049 4231.4,-193.675 4047.64,-167 3816.31,-133.42 3758.99,-120.656 3526.64,-95 3304.6,-70.4818 3038.07,-51.8759 2932.72,-44.9472"/>
<polygon fill="black" stroke="black" points="2932.65,-41.4354 2922.44,-44.2749 2932.19,-48.4204 2932.65,-41.4354"/>
</g>
<!-- 49&#45;&gt;48 -->
<g id="edge74" class="edge"><title>49&#45;&gt;48</title>
<path fill="none" stroke="black" d="M4534.98,-311.411C4552.51,-301.822 4574.76,-289.655 4593.59,-279.356"/>
<polygon fill="black" stroke="black" points="4595.43,-282.339 4602.53,-274.47 4592.07,-276.197 4595.43,-282.339"/>
</g>
<!-- 50 -->
<g id="node51" class="node"><title>50</title>
<ellipse fill="orange" stroke="black" cx="2631.64" cy="-113" rx="50.0912" ry="18"/>
<text text-anchor="middle" x="2631.64" y="-109.3" font-family="Times,serif" font-size="14.00">&lt;rev_doc&gt;</text>
</g>
<!-- 50&#45;&gt;60 -->
<g id="edge76" class="edge"><title>50&#45;&gt;60</title>
<path fill="none" stroke="black" d="M2669.39,-101.025C2676.44,-99.0008 2683.76,-96.9209 2690.64,-95 2744.05,-80.086 2805.83,-63.4887 2845.52,-52.9081"/>
<polygon fill="black" stroke="black" points="2846.61,-56.2421 2855.37,-50.2869 2844.81,-49.4778 2846.61,-56.2421"/>
</g>
<!-- 61 -->
<g id="node62" class="node"><title>61</title>
<ellipse fill="orange" stroke="black" cx="2631.64" cy="-41" rx="33.2948" ry="18"/>
<text text-anchor="middle" x="2631.64" y="-37.3" font-family="Times,serif" font-size="14.00">rev_id</text>
</g>
<!-- 50&#45;&gt;61 -->
<g id="edge75" class="edge"><title>50&#45;&gt;61</title>
<path fill="none" stroke="black" d="M2631.64,-94.6966C2631.64,-86.9827 2631.64,-77.7125 2631.64,-69.1124"/>
<polygon fill="black" stroke="black" points="2635.14,-69.1043 2631.64,-59.1043 2628.14,-69.1044 2635.14,-69.1043"/>
</g>
<!-- 51&#45;&gt;47 -->
<g id="edge77" class="edge"><title>51&#45;&gt;47</title>
<path fill="none" stroke="black" d="M1401.92,-392.14C1492.48,-379.926 1667.59,-356.307 1773.92,-341.967"/>
<polygon fill="black" stroke="black" points="1774.55,-345.414 1783.99,-340.609 1773.61,-338.477 1774.55,-345.414"/>
</g>
<!-- 51&#45;&gt;53 -->
<g id="edge78" class="edge"><title>51&#45;&gt;53</title>
<path fill="none" stroke="black" d="M1407.94,-395.96C1601.14,-383.82 2175.84,-347.708 2382.54,-334.719"/>
<polygon fill="black" stroke="black" points="2382.92,-338.202 2392.69,-334.082 2382.49,-331.216 2382.92,-338.202"/>
</g>
<!-- 52&#45;&gt;50 -->
<g id="edge79" class="edge"><title>52&#45;&gt;50</title>
<path fill="none" stroke="black" d="M3478.79,-181.226C3290.07,-174.671 2840.47,-156.809 2690.64,-131 2686.27,-130.247 2681.76,-129.289 2677.27,-128.213"/>
<polygon fill="black" stroke="black" points="2678.1,-124.813 2667.55,-125.703 2676.35,-131.591 2678.1,-124.813"/>
</g>
<!-- 53&#45;&gt;50 -->
<g id="edge80" class="edge"><title>53&#45;&gt;50</title>
<path fill="none" stroke="black" d="M2455.74,-310.718C2454.49,-291.84 2454.99,-261.319 2467.64,-239 2496.08,-188.832 2553.67,-152.306 2592.46,-132.118"/>
<polygon fill="black" stroke="black" points="2594.07,-135.227 2601.4,-127.579 2590.9,-128.985 2594.07,-135.227"/>
</g>
<!-- 54&#45;&gt;60 -->
<g id="edge81" class="edge"><title>54&#45;&gt;60</title>
<path fill="none" stroke="black" d="M2795.9,-96.2906C2813.62,-85.6906 2837.07,-71.6575 2855.7,-60.5141"/>
<polygon fill="black" stroke="black" points="2857.62,-63.4412 2864.41,-55.3035 2854.03,-57.4342 2857.62,-63.4412"/>
</g>
<!-- 55 -->
<g id="node56" class="node"><title>55</title>
<ellipse fill="orange" stroke="black" cx="1133.64" cy="-473" rx="69.5877" ry="18"/>
<text text-anchor="middle" x="1133.64" y="-469.3" font-family="Times,serif" font-size="14.00">&lt;tokens_added&gt;</text>
</g>
<!-- 55&#45;&gt;51 -->
<g id="edge82" class="edge"><title>55&#45;&gt;51</title>
<path fill="none" stroke="black" d="M1174.63,-458.337C1208.56,-447.027 1256.92,-430.909 1293.22,-418.808"/>
<polygon fill="black" stroke="black" points="1294.73,-421.992 1303.12,-415.509 1292.52,-415.351 1294.73,-421.992"/>
</g>
<!-- 56 -->
<g id="node57" class="node"><title>56</title>
<ellipse fill="orange" stroke="black" cx="1564.64" cy="-473" rx="79.8859" ry="18"/>
<text text-anchor="middle" x="1564.64" y="-469.3" font-family="Times,serif" font-size="14.00">&lt;tokens_removed&gt;</text>
</g>
<!-- 56&#45;&gt;51 -->
<g id="edge83" class="edge"><title>56&#45;&gt;51</title>
<path fill="none" stroke="black" d="M1520.19,-457.919C1484.09,-446.484 1433.13,-430.345 1395.24,-418.342"/>
<polygon fill="black" stroke="black" points="1396,-414.912 1385.41,-415.229 1393.89,-421.586 1396,-414.912"/>
</g>
<!-- 57 -->
<g id="node58" class="node"><title>57</title>
<ellipse fill="orange" stroke="black" cx="2749.64" cy="-257" rx="53.0913" ry="18"/>
<text text-anchor="middle" x="2749.64" y="-253.3" font-family="Times,serif" font-size="14.00">&lt;user_doc&gt;</text>
</g>
<!-- 57&#45;&gt;52 -->
<g id="edge85" class="edge"><title>57&#45;&gt;52</title>
<path fill="none" stroke="black" d="M2788.03,-244.379C2796.1,-242.294 2804.6,-240.356 2812.64,-239 3045.5,-199.746 3323.72,-189.5 3467.31,-186.87"/>
<polygon fill="black" stroke="black" points="3467.47,-190.367 3477.41,-186.693 3467.35,-183.369 3467.47,-190.367"/>
</g>
<!-- 57&#45;&gt;60 -->
<g id="edge84" class="edge"><title>57&#45;&gt;60</title>
<path fill="none" stroke="black" d="M2764.95,-239.666C2785.85,-216.745 2823.59,-173.11 2848.64,-131 2860.53,-111.02 2870.67,-86.6367 2877.48,-68.4474"/>
<polygon fill="black" stroke="black" points="2880.77,-69.6408 2880.91,-59.0469 2874.19,-67.2418 2880.77,-69.6408"/>
</g>
<!-- 58&#45;&gt;57 -->
<g id="edge86" class="edge"><title>58&#45;&gt;57</title>
<path fill="none" stroke="black" d="M2749.64,-310.697C2749.64,-302.983 2749.64,-293.712 2749.64,-285.112"/>
<polygon fill="black" stroke="black" points="2753.14,-285.104 2749.64,-275.104 2746.14,-285.104 2753.14,-285.104"/>
</g>
</g>
</svg>
