<?xml version="1.0" encoding="UTF-8" standalone="no"?>
<!DOCTYPE svg PUBLIC "-//W3C//DTD SVG 1.1//EN"
 "http://www.w3.org/Graphics/SVG/1.1/DTD/svg11.dtd">
<!-- Generated by graphviz version 2.38.0 (20140413.2041)
 -->
<!-- Title: G Pages: 1 -->
<svg width="3066pt" height="715pt"
 viewBox="0.00 0.00 3065.53 715.00" xmlns="http://www.w3.org/2000/svg" xmlns:xlink="http://www.w3.org/1999/xlink">
<g id="graph0" class="graph" transform="scale(1 1) rotate(0) translate(4 711)">
<title>G</title>
<polygon fill="white" stroke="none" points="-4,4 -4,-711 3061.53,-711 3061.53,4 -4,4"/>
<text text-anchor="middle" x="1528.76" y="-7.8" font-family="Times,serif" font-size="14.00">Dependencies between features and data sources of revscoring</text>
<!-- 0 -->
<g id="node1" class="node"><title>0</title>
<ellipse fill="palegreen" stroke="black" cx="968.792" cy="-689" rx="101.282" ry="18"/>
<text text-anchor="middle" x="968.792" y="-685.3" font-family="Times,serif" font-size="14.00">&lt;added_badwords_ratio&gt;</text>
</g>
<!-- 21 -->
<g id="node22" class="node"><title>21</title>
<ellipse fill="palegreen" stroke="black" cx="1262.79" cy="-617" rx="133.776" ry="18"/>
<text text-anchor="middle" x="1262.79" y="-613.3" font-family="Times,serif" font-size="14.00">&lt;proportion_of_badwords_added&gt;</text>
</g>
<!-- 0&#45;&gt;21 -->
<g id="edge1" class="edge"><title>0&#45;&gt;21</title>
<path fill="none" stroke="black" d="M1026.88,-674.17C1073.71,-663.02 1139.82,-647.278 1190.15,-635.295"/>
<polygon fill="black" stroke="black" points="1191.08,-638.672 1200,-632.951 1189.46,-631.863 1191.08,-638.672"/>
</g>
<!-- 25 -->
<g id="node26" class="node"><title>25</title>
<ellipse fill="palegreen" stroke="black" cx="675.792" cy="-617" rx="128.877" ry="18"/>
<text text-anchor="middle" x="675.792" y="-613.3" font-family="Times,serif" font-size="14.00">&lt;proportion_of_prev_badwords&gt;</text>
</g>
<!-- 0&#45;&gt;25 -->
<g id="edge2" class="edge"><title>0&#45;&gt;25</title>
<path fill="none" stroke="black" d="M910.905,-674.17C864.078,-662.983 797.902,-647.173 747.682,-635.175"/>
<polygon fill="black" stroke="black" points="748.401,-631.748 737.862,-632.829 746.775,-638.557 748.401,-631.748"/>
</g>
<!-- 1 -->
<g id="node2" class="node"><title>1</title>
<ellipse fill="palegreen" stroke="black" cx="641.792" cy="-689" rx="111.581" ry="18"/>
<text text-anchor="middle" x="641.792" y="-685.3" font-family="Times,serif" font-size="14.00">&lt;added_misspellings_ratio&gt;</text>
</g>
<!-- 23 -->
<g id="node24" class="node"><title>23</title>
<ellipse fill="palegreen" stroke="black" cx="966.792" cy="-617" rx="144.075" ry="18"/>
<text text-anchor="middle" x="966.792" y="-613.3" font-family="Times,serif" font-size="14.00">&lt;proportion_of_misspellings_added&gt;</text>
</g>
<!-- 1&#45;&gt;23 -->
<g id="edge3" class="edge"><title>1&#45;&gt;23</title>
<path fill="none" stroke="black" d="M706.002,-674.17C758.268,-662.913 832.265,-646.975 888.093,-634.951"/>
<polygon fill="black" stroke="black" points="888.905,-638.356 897.944,-632.829 887.432,-631.513 888.905,-638.356"/>
</g>
<!-- 26 -->
<g id="node27" class="node"><title>26</title>
<ellipse fill="palegreen" stroke="black" cx="252.792" cy="-617" rx="139.175" ry="18"/>
<text text-anchor="middle" x="252.792" y="-613.3" font-family="Times,serif" font-size="14.00">&lt;proportion_of_prev_misspellings&gt;</text>
</g>
<!-- 1&#45;&gt;26 -->
<g id="edge4" class="edge"><title>1&#45;&gt;26</title>
<path fill="none" stroke="black" d="M569.99,-675.079C505.231,-663.426 409.799,-646.253 340.536,-633.789"/>
<polygon fill="black" stroke="black" points="340.975,-630.312 330.513,-631.986 339.735,-637.202 340.975,-630.312"/>
</g>
<!-- 2 -->
<g id="node3" class="node"><title>2</title>
<ellipse fill="palegreen" stroke="black" cx="1310.79" cy="-545" rx="81.4863" ry="18"/>
<text text-anchor="middle" x="1310.79" y="-541.3" font-family="Times,serif" font-size="14.00">&lt;badwords_added&gt;</text>
</g>
<!-- 40 -->
<g id="node41" class="node"><title>40</title>
<ellipse fill="orange" stroke="black" cx="1606.79" cy="-473" rx="122.678" ry="18"/>
<text text-anchor="middle" x="1606.79" y="-469.3" font-family="Times,serif" font-size="14.00">&lt;contiguous_segments_added&gt;</text>
</g>
<!-- 2&#45;&gt;40 -->
<g id="edge6" class="edge"><title>2&#45;&gt;40</title>
<path fill="none" stroke="black" d="M1364.05,-531.405C1411.82,-520.107 1482.31,-503.438 1535.04,-490.969"/>
<polygon fill="black" stroke="black" points="1536.07,-494.32 1545,-488.613 1534.46,-487.508 1536.07,-494.32"/>
</g>
<!-- 59 -->
<g id="node60" class="node"><title>59</title>
<ellipse fill="orange" stroke="black" cx="989.792" cy="-473" rx="42.4939" ry="18"/>
<text text-anchor="middle" x="989.792" y="-469.3" font-family="Times,serif" font-size="14.00">language</text>
</g>
<!-- 2&#45;&gt;59 -->
<g id="edge5" class="edge"><title>2&#45;&gt;59</title>
<path fill="none" stroke="black" d="M1254.88,-531.807C1193.03,-518.319 1094.48,-496.828 1036.56,-484.199"/>
<polygon fill="black" stroke="black" points="1037.1,-480.735 1026.59,-482.023 1035.61,-487.574 1037.1,-480.735"/>
</g>
<!-- 3 -->
<g id="node4" class="node"><title>3</title>
<ellipse fill="palegreen" stroke="black" cx="1564.79" cy="-401" rx="73.387" ry="18"/>
<text text-anchor="middle" x="1564.79" y="-397.3" font-family="Times,serif" font-size="14.00">&lt;bytes_changed&gt;</text>
</g>
<!-- 46 -->
<g id="node47" class="node"><title>46</title>
<ellipse fill="orange" stroke="black" cx="1747.79" cy="-329" rx="120.779" ry="18"/>
<text text-anchor="middle" x="1747.79" y="-325.3" font-family="Times,serif" font-size="14.00">&lt;previous_revision_metadata&gt;</text>
</g>
<!-- 3&#45;&gt;46 -->
<g id="edge7" class="edge"><title>3&#45;&gt;46</title>
<path fill="none" stroke="black" d="M1602.71,-385.496C1629.92,-375.089 1666.88,-360.949 1696.69,-349.547"/>
<polygon fill="black" stroke="black" points="1698.01,-352.792 1706.1,-345.95 1695.5,-346.254 1698.01,-352.792"/>
</g>
<!-- 52 -->
<g id="node53" class="node"><title>52</title>
<ellipse fill="orange" stroke="black" cx="1796.79" cy="-185" rx="86.3847" ry="18"/>
<text text-anchor="middle" x="1796.79" y="-181.3" font-family="Times,serif" font-size="14.00">&lt;revision_metadata&gt;</text>
</g>
<!-- 3&#45;&gt;52 -->
<g id="edge8" class="edge"><title>3&#45;&gt;52</title>
<path fill="none" stroke="black" d="M1543.98,-383.548C1507.5,-352.775 1439.46,-285.425 1478.79,-239 1506.92,-205.793 1618.23,-193.373 1701.27,-188.738"/>
<polygon fill="black" stroke="black" points="1701.71,-192.22 1711.51,-188.198 1701.34,-185.23 1701.71,-192.22"/>
</g>
<!-- 4 -->
<g id="node5" class="node"><title>4</title>
<ellipse fill="palegreen" stroke="black" cx="2092.79" cy="-545" rx="65.7887" ry="18"/>
<text text-anchor="middle" x="2092.79" y="-541.3" font-family="Times,serif" font-size="14.00">&lt;chars_added&gt;</text>
</g>
<!-- 4&#45;&gt;40 -->
<g id="edge9" class="edge"><title>4&#45;&gt;40</title>
<path fill="none" stroke="black" d="M2045.56,-532.424C2036.7,-530.459 2027.49,-528.554 2018.79,-527 1895.28,-504.927 1863.24,-507.013 1738.79,-491 1728.18,-489.634 1717.08,-488.206 1706.03,-486.783"/>
<polygon fill="black" stroke="black" points="1706.27,-483.285 1695.9,-485.479 1705.37,-490.227 1706.27,-483.285"/>
</g>
<!-- 5 -->
<g id="node6" class="node"><title>5</title>
<ellipse fill="palegreen" stroke="black" cx="1735.79" cy="-257" rx="94.7833" ry="18"/>
<text text-anchor="middle" x="1735.79" y="-253.3" font-family="Times,serif" font-size="14.00">&lt;day_of_week_in_utc&gt;</text>
</g>
<!-- 5&#45;&gt;52 -->
<g id="edge10" class="edge"><title>5&#45;&gt;52</title>
<path fill="none" stroke="black" d="M1750.56,-239.055C1758.05,-230.457 1767.29,-219.857 1775.53,-210.397"/>
<polygon fill="black" stroke="black" points="1778.23,-212.628 1782.16,-202.789 1772.95,-208.029 1778.23,-212.628"/>
</g>
<!-- 6 -->
<g id="node7" class="node"><title>6</title>
<ellipse fill="palegreen" stroke="black" cx="2055.79" cy="-257" rx="92.8835" ry="18"/>
<text text-anchor="middle" x="2055.79" y="-253.3" font-family="Times,serif" font-size="14.00">&lt;hour_of_day_in_utc&gt;</text>
</g>
<!-- 6&#45;&gt;52 -->
<g id="edge11" class="edge"><title>6&#45;&gt;52</title>
<path fill="none" stroke="black" d="M2004,-242.003C1961.73,-230.578 1901.93,-214.416 1857.43,-202.389"/>
<polygon fill="black" stroke="black" points="1858.18,-198.965 1847.61,-199.734 1856.35,-205.722 1858.18,-198.965"/>
</g>
<!-- 7 -->
<g id="node8" class="node"><title>7</title>
<ellipse fill="palegreen" stroke="black" cx="1106.79" cy="-257" rx="100.983" ry="18"/>
<text text-anchor="middle" x="1106.79" y="-253.3" font-family="Times,serif" font-size="14.00">&lt;is_content_namespace&gt;</text>
</g>
<!-- 44 -->
<g id="node45" class="node"><title>44</title>
<ellipse fill="orange" stroke="black" cx="1106.79" cy="-185" rx="63.8893" ry="18"/>
<text text-anchor="middle" x="1106.79" y="-181.3" font-family="Times,serif" font-size="14.00">&lt;namespaces&gt;</text>
</g>
<!-- 7&#45;&gt;44 -->
<g id="edge13" class="edge"><title>7&#45;&gt;44</title>
<path fill="none" stroke="black" d="M1106.79,-238.697C1106.79,-230.983 1106.79,-221.712 1106.79,-213.112"/>
<polygon fill="black" stroke="black" points="1110.29,-213.104 1106.79,-203.104 1103.29,-213.104 1110.29,-213.104"/>
</g>
<!-- 7&#45;&gt;52 -->
<g id="edge12" class="edge"><title>7&#45;&gt;52</title>
<path fill="none" stroke="black" d="M1178.3,-244.289C1191.1,-242.381 1204.33,-240.531 1216.79,-239 1389.47,-217.788 1592.03,-201.148 1706.3,-192.516"/>
<polygon fill="black" stroke="black" points="1706.7,-195.997 1716.41,-191.757 1706.17,-189.017 1706.7,-195.997"/>
</g>
<!-- 8 -->
<g id="node9" class="node"><title>8</title>
<ellipse fill="palegreen" stroke="black" cx="2261.79" cy="-257" rx="95.5831" ry="18"/>
<text text-anchor="middle" x="2261.79" y="-253.3" font-family="Times,serif" font-size="14.00">&lt;is_custom_comment&gt;</text>
</g>
<!-- 8&#45;&gt;52 -->
<g id="edge14" class="edge"><title>8&#45;&gt;52</title>
<path fill="none" stroke="black" d="M2192.73,-244.549C2181.07,-242.663 2169.09,-240.753 2157.79,-239 2060.94,-223.976 1949.29,-207.752 1876.11,-197.268"/>
<polygon fill="black" stroke="black" points="1876.44,-193.779 1866.05,-195.827 1875.45,-200.709 1876.44,-193.779"/>
</g>
<!-- 9 -->
<g id="node10" class="node"><title>9</title>
<ellipse fill="palegreen" stroke="black" cx="2444.79" cy="-257" rx="69.5877" ry="18"/>
<text text-anchor="middle" x="2444.79" y="-253.3" font-family="Times,serif" font-size="14.00">&lt;is_mainspace&gt;</text>
</g>
<!-- 9&#45;&gt;52 -->
<g id="edge15" class="edge"><title>9&#45;&gt;52</title>
<path fill="none" stroke="black" d="M2395.45,-244.295C2385.97,-242.318 2376.11,-240.442 2366.79,-239 2199.48,-213.087 2002.43,-198.192 1889.31,-191.126"/>
<polygon fill="black" stroke="black" points="1889.5,-187.631 1879.3,-190.507 1889.07,-194.617 1889.5,-187.631"/>
</g>
<!-- 10 -->
<g id="node11" class="node"><title>10</title>
<ellipse fill="palegreen" stroke="black" cx="2031.79" cy="-401" rx="103.982" ry="18"/>
<text text-anchor="middle" x="2031.79" y="-397.3" font-family="Times,serif" font-size="14.00">&lt;is_previous_user_same&gt;</text>
</g>
<!-- 10&#45;&gt;46 -->
<g id="edge16" class="edge"><title>10&#45;&gt;46</title>
<path fill="none" stroke="black" d="M1974.66,-385.919C1929.35,-374.751 1865.83,-359.095 1817.53,-347.188"/>
<polygon fill="black" stroke="black" points="1818.32,-343.778 1807.77,-344.783 1816.64,-350.575 1818.32,-343.778"/>
</g>
<!-- 10&#45;&gt;52 -->
<g id="edge17" class="edge"><title>10&#45;&gt;52</title>
<path fill="none" stroke="black" d="M2019.92,-382.757C1997.62,-351.267 1946.72,-283.594 1891.79,-239 1876.33,-226.445 1857.48,-215.239 1840.66,-206.401"/>
<polygon fill="black" stroke="black" points="1842.06,-203.184 1831.56,-201.742 1838.87,-209.415 1842.06,-203.184"/>
</g>
<!-- 11 -->
<g id="node12" class="node"><title>11</title>
<ellipse fill="palegreen" stroke="black" cx="2626.79" cy="-257" rx="94.7833" ry="18"/>
<text text-anchor="middle" x="2626.79" y="-253.3" font-family="Times,serif" font-size="14.00">&lt;is_section_comment&gt;</text>
</g>
<!-- 11&#45;&gt;52 -->
<g id="edge18" class="edge"><title>11&#45;&gt;52</title>
<path fill="none" stroke="black" d="M2560.15,-244.094C2548.08,-242.196 2535.58,-240.4 2523.79,-239 2297.29,-212.108 2029.36,-196.811 1890.61,-190.112"/>
<polygon fill="black" stroke="black" points="1890.59,-186.608 1880.44,-189.625 1890.26,-193.6 1890.59,-186.608"/>
</g>
<!-- 12 -->
<g id="node13" class="node"><title>12</title>
<ellipse fill="palegreen" stroke="black" cx="2740.79" cy="-545" rx="126.178" ry="18"/>
<text text-anchor="middle" x="2740.79" y="-541.3" font-family="Times,serif" font-size="14.00">&lt;longest_repeated_char_added&gt;</text>
</g>
<!-- 12&#45;&gt;40 -->
<g id="edge19" class="edge"><title>12&#45;&gt;40</title>
<path fill="none" stroke="black" d="M2653.76,-531.953C2637.83,-530.057 2621.33,-528.299 2605.79,-527 2221.47,-494.879 2123.07,-523.662 1738.79,-491 1726.92,-489.991 1714.48,-488.699 1702.17,-487.278"/>
<polygon fill="black" stroke="black" points="1702.23,-483.761 1691.88,-486.059 1701.4,-490.712 1702.23,-483.761"/>
</g>
<!-- 13 -->
<g id="node14" class="node"><title>13</title>
<ellipse fill="palegreen" stroke="black" cx="1843.79" cy="-473" rx="96.3833" ry="18"/>
<text text-anchor="middle" x="1843.79" y="-469.3" font-family="Times,serif" font-size="14.00">&lt;longest_token_added&gt;</text>
</g>
<!-- 51 -->
<g id="node52" class="node"><title>51</title>
<ellipse fill="orange" stroke="black" cx="698.792" cy="-401" rx="66.8882" ry="18"/>
<text text-anchor="middle" x="698.792" y="-397.3" font-family="Times,serif" font-size="14.00">&lt;revision_diff&gt;</text>
</g>
<!-- 13&#45;&gt;51 -->
<g id="edge20" class="edge"><title>13&#45;&gt;51</title>
<path fill="none" stroke="black" d="M1777.02,-459.955C1764.36,-458.022 1751.19,-456.249 1738.79,-455 1343.58,-415.186 1241.8,-449.838 845.792,-419 820.129,-417.002 792.036,-413.963 767.347,-411.005"/>
<polygon fill="black" stroke="black" points="767.7,-407.523 757.351,-409.79 766.855,-414.471 767.7,-407.523"/>
</g>
<!-- 14 -->
<g id="node15" class="node"><title>14</title>
<ellipse fill="palegreen" stroke="black" cx="2499.79" cy="-545" rx="96.6831" ry="18"/>
<text text-anchor="middle" x="2499.79" y="-541.3" font-family="Times,serif" font-size="14.00">&lt;markup_chars_added&gt;</text>
</g>
<!-- 14&#45;&gt;40 -->
<g id="edge21" class="edge"><title>14&#45;&gt;40</title>
<path fill="none" stroke="black" d="M2432.44,-532.015C2419.95,-530.101 2407,-528.32 2394.79,-527 2104.49,-495.622 2029.57,-517.667 1738.79,-491 1727.02,-489.92 1714.68,-488.593 1702.47,-487.16"/>
<polygon fill="black" stroke="black" points="1702.6,-483.651 1692.25,-485.935 1701.77,-490.601 1702.6,-483.651"/>
</g>
<!-- 15 -->
<g id="node16" class="node"><title>15</title>
<ellipse fill="palegreen" stroke="black" cx="966.792" cy="-545" rx="90.9839" ry="18"/>
<text text-anchor="middle" x="966.792" y="-541.3" font-family="Times,serif" font-size="14.00">&lt;misspellings_added&gt;</text>
</g>
<!-- 15&#45;&gt;40 -->
<g id="edge23" class="edge"><title>15&#45;&gt;40</title>
<path fill="none" stroke="black" d="M1031.51,-532.312C1043.23,-530.391 1055.36,-528.531 1066.79,-527 1212.56,-507.481 1381.38,-492.057 1490.91,-482.993"/>
<polygon fill="black" stroke="black" points="1491.32,-486.472 1501,-482.163 1490.74,-479.496 1491.32,-486.472"/>
</g>
<!-- 15&#45;&gt;59 -->
<g id="edge22" class="edge"><title>15&#45;&gt;59</title>
<path fill="none" stroke="black" d="M972.478,-526.697C975.04,-518.898 978.125,-509.509 980.977,-500.829"/>
<polygon fill="black" stroke="black" points="984.376,-501.697 984.172,-491.104 977.726,-499.512 984.376,-501.697"/>
</g>
<!-- 16 -->
<g id="node17" class="node"><title>16</title>
<ellipse fill="palegreen" stroke="black" cx="1508.79" cy="-545" rx="98.5829" ry="18"/>
<text text-anchor="middle" x="1508.79" y="-541.3" font-family="Times,serif" font-size="14.00">&lt;numeric_chars_added&gt;</text>
</g>
<!-- 16&#45;&gt;40 -->
<g id="edge24" class="edge"><title>16&#45;&gt;40</title>
<path fill="none" stroke="black" d="M1532.02,-527.411C1544.86,-518.237 1561.01,-506.704 1575,-496.705"/>
<polygon fill="black" stroke="black" points="1577.29,-499.373 1583.39,-490.713 1573.22,-493.677 1577.29,-499.373"/>
</g>
<!-- 17 -->
<g id="node18" class="node"><title>17</title>
<ellipse fill="palegreen" stroke="black" cx="952.792" cy="-401" rx="98.2828" ry="18"/>
<text text-anchor="middle" x="952.792" y="-397.3" font-family="Times,serif" font-size="14.00">&lt;page_age_in_seconds&gt;</text>
</g>
<!-- 43 -->
<g id="node44" class="node"><title>43</title>
<ellipse fill="orange" stroke="black" cx="892.792" cy="-329" rx="104.782" ry="18"/>
<text text-anchor="middle" x="892.792" y="-325.3" font-family="Times,serif" font-size="14.00">&lt;first_revision_metadata&gt;</text>
</g>
<!-- 17&#45;&gt;43 -->
<g id="edge25" class="edge"><title>17&#45;&gt;43</title>
<path fill="none" stroke="black" d="M938.268,-383.055C931.079,-374.668 922.258,-364.376 914.304,-355.096"/>
<polygon fill="black" stroke="black" points="916.765,-352.59 907.6,-347.275 911.45,-357.146 916.765,-352.59"/>
</g>
<!-- 17&#45;&gt;52 -->
<g id="edge26" class="edge"><title>17&#45;&gt;52</title>
<path fill="none" stroke="black" d="M1017.93,-387.524C1107.09,-369.2 1271.09,-331.001 1402.79,-275 1431.76,-262.682 1434.17,-249.661 1463.79,-239 1541.99,-210.855 1635.86,-197.627 1703.98,-191.427"/>
<polygon fill="black" stroke="black" points="1704.6,-194.885 1714.26,-190.526 1703.99,-187.912 1704.6,-194.885"/>
</g>
<!-- 18 -->
<g id="node19" class="node"><title>18</title>
<ellipse fill="palegreen" stroke="black" cx="782.792" cy="-545" rx="75.2868" ry="18"/>
<text text-anchor="middle" x="782.792" y="-541.3" font-family="Times,serif" font-size="14.00">&lt;prev_badwords&gt;</text>
</g>
<!-- 47 -->
<g id="node48" class="node"><title>47</title>
<ellipse fill="orange" stroke="black" cx="568.792" cy="-329" rx="102.082" ry="18"/>
<text text-anchor="middle" x="568.792" y="-325.3" font-family="Times,serif" font-size="14.00">&lt;previous_revision_text&gt;</text>
</g>
<!-- 18&#45;&gt;47 -->
<g id="edge28" class="edge"><title>18&#45;&gt;47</title>
<path fill="none" stroke="black" d="M731.727,-531.7C682.033,-519.287 612.725,-500.618 603.792,-491 569.745,-454.342 565.884,-392.621 566.854,-357.196"/>
<polygon fill="black" stroke="black" points="570.355,-357.243 567.282,-347.103 563.361,-356.946 570.355,-357.243"/>
</g>
<!-- 18&#45;&gt;59 -->
<g id="edge27" class="edge"><title>18&#45;&gt;59</title>
<path fill="none" stroke="black" d="M824.682,-529.834C860.641,-517.674 912.199,-500.239 948.101,-488.099"/>
<polygon fill="black" stroke="black" points="949.434,-491.343 957.786,-484.824 947.191,-484.712 949.434,-491.343"/>
</g>
<!-- 19 -->
<g id="node20" class="node"><title>19</title>
<ellipse fill="palegreen" stroke="black" cx="85.7924" cy="-545" rx="85.5853" ry="18"/>
<text text-anchor="middle" x="85.7924" y="-541.3" font-family="Times,serif" font-size="14.00">&lt;prev_misspellings&gt;</text>
</g>
<!-- 19&#45;&gt;47 -->
<g id="edge30" class="edge"><title>19&#45;&gt;47</title>
<path fill="none" stroke="black" d="M104.952,-527.191C143.541,-494.258 234.572,-421.133 323.792,-383 372.266,-362.282 429.722,-349.304 476.806,-341.38"/>
<polygon fill="black" stroke="black" points="477.384,-344.832 486.688,-339.765 476.255,-337.924 477.384,-344.832"/>
</g>
<!-- 19&#45;&gt;59 -->
<g id="edge29" class="edge"><title>19&#45;&gt;59</title>
<path fill="none" stroke="black" d="M145.673,-532.069C157.284,-530.101 169.387,-528.286 180.792,-527 515.938,-489.216 607.254,-552.908 938.792,-491 942.399,-490.327 946.101,-489.459 949.783,-488.473"/>
<polygon fill="black" stroke="black" points="950.804,-491.821 959.407,-485.638 948.826,-485.106 950.804,-491.821"/>
</g>
<!-- 20 -->
<g id="node21" class="node"><title>20</title>
<ellipse fill="palegreen" stroke="black" cx="252.792" cy="-545" rx="63.0888" ry="18"/>
<text text-anchor="middle" x="252.792" y="-541.3" font-family="Times,serif" font-size="14.00">&lt;prev_words&gt;</text>
</g>
<!-- 20&#45;&gt;47 -->
<g id="edge31" class="edge"><title>20&#45;&gt;47</title>
<path fill="none" stroke="black" d="M254.209,-526.844C256.681,-507.221 263.433,-475.207 281.792,-455 337.15,-394.07 427.477,-361.481 492.011,-345.026"/>
<polygon fill="black" stroke="black" points="492.872,-348.419 501.737,-342.618 491.189,-341.624 492.872,-348.419"/>
</g>
<!-- 21&#45;&gt;2 -->
<g id="edge33" class="edge"><title>21&#45;&gt;2</title>
<path fill="none" stroke="black" d="M1274.41,-599.055C1280.05,-590.837 1286.94,-580.791 1293.2,-571.66"/>
<polygon fill="black" stroke="black" points="1296.18,-573.502 1298.95,-563.275 1290.4,-569.543 1296.18,-573.502"/>
</g>
<!-- 38 -->
<g id="node39" class="node"><title>38</title>
<ellipse fill="palegreen" stroke="black" cx="1143.79" cy="-545" rx="68.4888" ry="18"/>
<text text-anchor="middle" x="1143.79" y="-541.3" font-family="Times,serif" font-size="14.00">&lt;words_added&gt;</text>
</g>
<!-- 21&#45;&gt;38 -->
<g id="edge32" class="edge"><title>21&#45;&gt;38</title>
<path fill="none" stroke="black" d="M1234.29,-599.233C1217.78,-589.52 1196.85,-577.208 1179.27,-566.872"/>
<polygon fill="black" stroke="black" points="1180.83,-563.724 1170.43,-561.671 1177.28,-569.758 1180.83,-563.724"/>
</g>
<!-- 22 -->
<g id="node23" class="node"><title>22</title>
<ellipse fill="palegreen" stroke="black" cx="2495.79" cy="-617" rx="127.277" ry="18"/>
<text text-anchor="middle" x="2495.79" y="-613.3" font-family="Times,serif" font-size="14.00">&lt;proportion_of_markup_added&gt;</text>
</g>
<!-- 22&#45;&gt;4 -->
<g id="edge34" class="edge"><title>22&#45;&gt;4</title>
<path fill="none" stroke="black" d="M2409.62,-603.71C2343.09,-593.837 2248.84,-579.016 2166.79,-563 2161.46,-561.958 2155.92,-560.811 2150.38,-559.619"/>
<polygon fill="black" stroke="black" points="2150.98,-556.167 2140.46,-557.439 2149.48,-563.004 2150.98,-556.167"/>
</g>
<!-- 22&#45;&gt;14 -->
<g id="edge35" class="edge"><title>22&#45;&gt;14</title>
<path fill="none" stroke="black" d="M2496.78,-598.697C2497.22,-590.983 2497.75,-581.712 2498.24,-573.112"/>
<polygon fill="black" stroke="black" points="2501.74,-573.288 2498.81,-563.104 2494.75,-572.888 2501.74,-573.288"/>
</g>
<!-- 23&#45;&gt;15 -->
<g id="edge37" class="edge"><title>23&#45;&gt;15</title>
<path fill="none" stroke="black" d="M966.792,-598.697C966.792,-590.983 966.792,-581.712 966.792,-573.112"/>
<polygon fill="black" stroke="black" points="970.292,-573.104 966.792,-563.104 963.292,-573.104 970.292,-573.104"/>
</g>
<!-- 23&#45;&gt;38 -->
<g id="edge36" class="edge"><title>23&#45;&gt;38</title>
<path fill="none" stroke="black" d="M1008.29,-599.588C1035.25,-588.924 1070.42,-575.018 1098.17,-564.044"/>
<polygon fill="black" stroke="black" points="1099.64,-567.227 1107.65,-560.294 1097.06,-560.717 1099.64,-567.227"/>
</g>
<!-- 24 -->
<g id="node25" class="node"><title>24</title>
<ellipse fill="palegreen" stroke="black" cx="1586.79" cy="-617" rx="129.177" ry="18"/>
<text text-anchor="middle" x="1586.79" y="-613.3" font-family="Times,serif" font-size="14.00">&lt;proportion_of_numeric_added&gt;</text>
</g>
<!-- 24&#45;&gt;4 -->
<g id="edge38" class="edge"><title>24&#45;&gt;4</title>
<path fill="none" stroke="black" d="M1691.11,-606.265C1778.89,-597.342 1907.53,-582.551 2018.79,-563 2024.23,-562.045 2029.87,-560.947 2035.5,-559.779"/>
<polygon fill="black" stroke="black" points="2036.53,-563.138 2045.57,-557.617 2035.06,-556.293 2036.53,-563.138"/>
</g>
<!-- 24&#45;&gt;16 -->
<g id="edge39" class="edge"><title>24&#45;&gt;16</title>
<path fill="none" stroke="black" d="M1567.91,-599.055C1558.04,-590.199 1545.81,-579.219 1535.03,-569.549"/>
<polygon fill="black" stroke="black" points="1537.28,-566.863 1527.5,-562.789 1532.6,-572.073 1537.28,-566.863"/>
</g>
<!-- 25&#45;&gt;18 -->
<g id="edge41" class="edge"><title>25&#45;&gt;18</title>
<path fill="none" stroke="black" d="M701.422,-599.233C715.789,-589.834 733.878,-578 749.35,-567.878"/>
<polygon fill="black" stroke="black" points="751.657,-570.552 758.109,-562.148 747.825,-564.694 751.657,-570.552"/>
</g>
<!-- 25&#45;&gt;20 -->
<g id="edge40" class="edge"><title>25&#45;&gt;20</title>
<path fill="none" stroke="black" d="M584.167,-604.26C513.136,-594.653 412.379,-579.923 324.792,-563 319.512,-561.98 314.032,-560.838 308.56,-559.643"/>
<polygon fill="black" stroke="black" points="309.286,-556.219 298.763,-557.447 307.755,-563.049 309.286,-556.219"/>
</g>
<!-- 26&#45;&gt;19 -->
<g id="edge43" class="edge"><title>26&#45;&gt;19</title>
<path fill="none" stroke="black" d="M213.638,-599.588C189.189,-589.34 157.595,-576.097 131.932,-565.34"/>
<polygon fill="black" stroke="black" points="132.989,-561.988 122.414,-561.35 130.283,-568.444 132.989,-561.988"/>
</g>
<!-- 26&#45;&gt;20 -->
<g id="edge42" class="edge"><title>26&#45;&gt;20</title>
<path fill="none" stroke="black" d="M252.792,-598.697C252.792,-590.983 252.792,-581.712 252.792,-573.112"/>
<polygon fill="black" stroke="black" points="256.292,-573.104 252.792,-563.104 249.292,-573.104 256.292,-573.104"/>
</g>
<!-- 27 -->
<g id="node28" class="node"><title>27</title>
<ellipse fill="palegreen" stroke="black" cx="1909.79" cy="-617" rx="132.677" ry="18"/>
<text text-anchor="middle" x="1909.79" y="-613.3" font-family="Times,serif" font-size="14.00">&lt;proportion_of_symbolic_added&gt;</text>
</g>
<!-- 27&#45;&gt;4 -->
<g id="edge44" class="edge"><title>27&#45;&gt;4</title>
<path fill="none" stroke="black" d="M1952.24,-599.765C1980.51,-588.951 2017.64,-574.745 2046.65,-563.652"/>
<polygon fill="black" stroke="black" points="2048.05,-566.86 2056.14,-560.018 2045.55,-560.322 2048.05,-566.86"/>
</g>
<!-- 33 -->
<g id="node34" class="node"><title>33</title>
<ellipse fill="palegreen" stroke="black" cx="1906.79" cy="-545" rx="102.882" ry="18"/>
<text text-anchor="middle" x="1906.79" y="-541.3" font-family="Times,serif" font-size="14.00">&lt;symbolic_chars_added&gt;</text>
</g>
<!-- 27&#45;&gt;33 -->
<g id="edge45" class="edge"><title>27&#45;&gt;33</title>
<path fill="none" stroke="black" d="M1909.05,-598.697C1908.72,-590.983 1908.32,-581.712 1907.95,-573.112"/>
<polygon fill="black" stroke="black" points="1911.45,-572.945 1907.53,-563.104 1904.46,-573.245 1911.45,-572.945"/>
</g>
<!-- 28 -->
<g id="node29" class="node"><title>28</title>
<ellipse fill="palegreen" stroke="black" cx="2208.79" cy="-617" rx="135.376" ry="18"/>
<text text-anchor="middle" x="2208.79" y="-613.3" font-family="Times,serif" font-size="14.00">&lt;proportion_of_uppercase_added&gt;</text>
</g>
<!-- 28&#45;&gt;4 -->
<g id="edge46" class="edge"><title>28&#45;&gt;4</title>
<path fill="none" stroke="black" d="M2181.01,-599.233C2164.91,-589.52 2144.51,-577.208 2127.38,-566.872"/>
<polygon fill="black" stroke="black" points="2129.13,-563.841 2118.76,-561.671 2125.51,-569.834 2129.13,-563.841"/>
</g>
<!-- 34 -->
<g id="node35" class="node"><title>34</title>
<ellipse fill="palegreen" stroke="black" cx="2280.79" cy="-545" rx="104.782" ry="18"/>
<text text-anchor="middle" x="2280.79" y="-541.3" font-family="Times,serif" font-size="14.00">&lt;uppercase_chars_added&gt;</text>
</g>
<!-- 28&#45;&gt;34 -->
<g id="edge47" class="edge"><title>28&#45;&gt;34</title>
<path fill="none" stroke="black" d="M2226.22,-599.055C2235.24,-590.285 2246.41,-579.432 2256.28,-569.831"/>
<polygon fill="black" stroke="black" points="2258.79,-572.269 2263.52,-562.789 2253.91,-567.25 2258.79,-572.269"/>
</g>
<!-- 29 -->
<g id="node30" class="node"><title>29</title>
<ellipse fill="palegreen" stroke="black" cx="1782.79" cy="-401" rx="126.978" ry="18"/>
<text text-anchor="middle" x="1782.79" y="-397.3" font-family="Times,serif" font-size="14.00">&lt;seconds_since_last_page_edit&gt;</text>
</g>
<!-- 29&#45;&gt;46 -->
<g id="edge48" class="edge"><title>29&#45;&gt;46</title>
<path fill="none" stroke="black" d="M1774.14,-382.697C1770.16,-374.728 1765.34,-365.1 1760.92,-356.264"/>
<polygon fill="black" stroke="black" points="1763.95,-354.483 1756.34,-347.104 1757.69,-357.614 1763.95,-354.483"/>
</g>
<!-- 29&#45;&gt;52 -->
<g id="edge49" class="edge"><title>29&#45;&gt;52</title>
<path fill="none" stroke="black" d="M1832.48,-384.283C1849.97,-376.089 1867.75,-364.1 1877.79,-347 1886.75,-331.739 1882.98,-256.982 1872.79,-239 1865.32,-225.81 1853.04,-215.148 1840.52,-206.941"/>
<polygon fill="black" stroke="black" points="1842.22,-203.88 1831.87,-201.65 1838.57,-209.852 1842.22,-203.88"/>
</g>
<!-- 30 -->
<g id="node31" class="node"><title>30</title>
<ellipse fill="palegreen" stroke="black" cx="2833.79" cy="-401" rx="124.578" ry="18"/>
<text text-anchor="middle" x="2833.79" y="-397.3" font-family="Times,serif" font-size="14.00">&lt;seconds_since_last_user_edit&gt;</text>
</g>
<!-- 49 -->
<g id="node50" class="node"><title>49</title>
<ellipse fill="orange" stroke="black" cx="2917.79" cy="-329" rx="139.976" ry="18"/>
<text text-anchor="middle" x="2917.79" y="-325.3" font-family="Times,serif" font-size="14.00">&lt;previous_user_revision_metadata&gt;</text>
</g>
<!-- 30&#45;&gt;49 -->
<g id="edge50" class="edge"><title>30&#45;&gt;49</title>
<path fill="none" stroke="black" d="M2854.13,-383.055C2864.78,-374.179 2877.99,-363.169 2889.61,-353.483"/>
<polygon fill="black" stroke="black" points="2891.91,-356.122 2897.35,-347.032 2887.43,-350.745 2891.91,-356.122"/>
</g>
<!-- 30&#45;&gt;52 -->
<g id="edge51" class="edge"><title>30&#45;&gt;52</title>
<path fill="none" stroke="black" d="M2807.08,-383.355C2794,-374.044 2778.92,-361.415 2768.79,-347 2739.54,-305.367 2771.47,-269.575 2730.79,-239 2697.65,-214.089 2123.04,-195.195 1891.92,-188.571"/>
<polygon fill="black" stroke="black" points="1891.94,-185.07 1881.84,-188.284 1891.74,-192.067 1891.94,-185.07"/>
</g>
<!-- 31 -->
<g id="node32" class="node"><title>31</title>
<ellipse fill="palegreen" stroke="black" cx="1705.79" cy="-545" rx="79.8859" ry="18"/>
<text text-anchor="middle" x="1705.79" y="-541.3" font-family="Times,serif" font-size="14.00">&lt;segments_added&gt;</text>
</g>
<!-- 31&#45;&gt;40 -->
<g id="edge52" class="edge"><title>31&#45;&gt;40</title>
<path fill="none" stroke="black" d="M1682.58,-527.588C1669.61,-518.419 1653.25,-506.852 1639.06,-496.813"/>
<polygon fill="black" stroke="black" points="1640.73,-493.711 1630.55,-490.795 1636.69,-499.426 1640.73,-493.711"/>
</g>
<!-- 32 -->
<g id="node33" class="node"><title>32</title>
<ellipse fill="palegreen" stroke="black" cx="423.792" cy="-545" rx="90.1842" ry="18"/>
<text text-anchor="middle" x="423.792" y="-541.3" font-family="Times,serif" font-size="14.00">&lt;segments_removed&gt;</text>
</g>
<!-- 41 -->
<g id="node42" class="node"><title>41</title>
<ellipse fill="orange" stroke="black" cx="423.792" cy="-473" rx="133.477" ry="18"/>
<text text-anchor="middle" x="423.792" y="-469.3" font-family="Times,serif" font-size="14.00">&lt;contiguous_segments_removed&gt;</text>
</g>
<!-- 32&#45;&gt;41 -->
<g id="edge53" class="edge"><title>32&#45;&gt;41</title>
<path fill="none" stroke="black" d="M423.792,-526.697C423.792,-518.983 423.792,-509.712 423.792,-501.112"/>
<polygon fill="black" stroke="black" points="427.292,-501.104 423.792,-491.104 420.292,-501.104 427.292,-501.104"/>
</g>
<!-- 33&#45;&gt;40 -->
<g id="edge54" class="edge"><title>33&#45;&gt;40</title>
<path fill="none" stroke="black" d="M1847.88,-530.254C1799.47,-518.957 1730.68,-502.907 1678.96,-490.84"/>
<polygon fill="black" stroke="black" points="1679.72,-487.423 1669.19,-488.559 1678.13,-494.24 1679.72,-487.423"/>
</g>
<!-- 34&#45;&gt;40 -->
<g id="edge55" class="edge"><title>34&#45;&gt;40</title>
<path fill="none" stroke="black" d="M2207.03,-532.191C2193.98,-530.305 2180.5,-528.488 2167.79,-527 1977.75,-504.756 1929.06,-511.225 1738.79,-491 1727.51,-489.8 1715.69,-488.435 1703.97,-487.013"/>
<polygon fill="black" stroke="black" points="1704.06,-483.497 1693.71,-485.75 1703.21,-490.445 1704.06,-483.497"/>
</g>
<!-- 35 -->
<g id="node36" class="node"><title>35</title>
<ellipse fill="palegreen" stroke="black" cx="1376.79" cy="-401" rx="96.3833" ry="18"/>
<text text-anchor="middle" x="1376.79" y="-397.3" font-family="Times,serif" font-size="14.00">&lt;user_age_in_seconds&gt;</text>
</g>
<!-- 35&#45;&gt;52 -->
<g id="edge57" class="edge"><title>35&#45;&gt;52</title>
<path fill="none" stroke="black" d="M1412.83,-384.191C1459.34,-364.375 1543.17,-330.632 1617.79,-311 1666.13,-298.284 1807.4,-313.063 1839.79,-275 1856.12,-255.817 1839.59,-229.374 1822.51,-210.303"/>
<polygon fill="black" stroke="black" points="1824.91,-207.75 1815.5,-202.878 1819.82,-212.553 1824.91,-207.75"/>
</g>
<!-- 58 -->
<g id="node59" class="node"><title>58</title>
<ellipse fill="orange" stroke="black" cx="1376.79" cy="-329" rx="54.6905" ry="18"/>
<text text-anchor="middle" x="1376.79" y="-325.3" font-family="Times,serif" font-size="14.00">&lt;user_info&gt;</text>
</g>
<!-- 35&#45;&gt;58 -->
<g id="edge56" class="edge"><title>35&#45;&gt;58</title>
<path fill="none" stroke="black" d="M1376.79,-382.697C1376.79,-374.983 1376.79,-365.712 1376.79,-357.112"/>
<polygon fill="black" stroke="black" points="1380.29,-357.104 1376.79,-347.104 1373.29,-357.104 1380.29,-357.104"/>
</g>
<!-- 36 -->
<g id="node37" class="node"><title>36</title>
<ellipse fill="palegreen" stroke="black" cx="1555.79" cy="-257" rx="67.6881" ry="18"/>
<text text-anchor="middle" x="1555.79" y="-253.3" font-family="Times,serif" font-size="14.00">&lt;user_is_anon&gt;</text>
</g>
<!-- 36&#45;&gt;52 -->
<g id="edge58" class="edge"><title>36&#45;&gt;52</title>
<path fill="none" stroke="black" d="M1599.72,-243.242C1638.76,-231.901 1696.12,-215.24 1738.91,-202.813"/>
<polygon fill="black" stroke="black" points="1740,-206.142 1748.62,-199.991 1738.04,-199.419 1740,-206.142"/>
</g>
<!-- 37 -->
<g id="node38" class="node"><title>37</title>
<ellipse fill="palegreen" stroke="black" cx="1200.79" cy="-401" rx="61.99" ry="18"/>
<text text-anchor="middle" x="1200.79" y="-397.3" font-family="Times,serif" font-size="14.00">&lt;user_is_bot&gt;</text>
</g>
<!-- 37&#45;&gt;58 -->
<g id="edge59" class="edge"><title>37&#45;&gt;58</title>
<path fill="none" stroke="black" d="M1235.99,-386.003C1264.23,-374.77 1303.98,-358.958 1334.05,-346.998"/>
<polygon fill="black" stroke="black" points="1335.45,-350.21 1343.45,-343.262 1332.86,-343.705 1335.45,-350.21"/>
</g>
<!-- 38&#45;&gt;40 -->
<g id="edge60" class="edge"><title>38&#45;&gt;40</title>
<path fill="none" stroke="black" d="M1193.38,-532.434C1202.47,-530.49 1211.9,-528.59 1220.79,-527 1315.9,-510 1425.05,-495.471 1502.95,-485.947"/>
<polygon fill="black" stroke="black" points="1503.75,-489.376 1513.25,-484.695 1502.91,-482.428 1503.75,-489.376"/>
</g>
<!-- 39 -->
<g id="node40" class="node"><title>39</title>
<ellipse fill="palegreen" stroke="black" cx="610.792" cy="-545" rx="78.7863" ry="18"/>
<text text-anchor="middle" x="610.792" y="-541.3" font-family="Times,serif" font-size="14.00">&lt;words_removed&gt;</text>
</g>
<!-- 39&#45;&gt;41 -->
<g id="edge61" class="edge"><title>39&#45;&gt;41</title>
<path fill="none" stroke="black" d="M571.591,-529.326C543.952,-518.98 506.626,-505.007 476.4,-493.693"/>
<polygon fill="black" stroke="black" points="477.45,-490.348 466.857,-490.121 474.996,-496.904 477.45,-490.348"/>
</g>
<!-- 40&#45;&gt;51 -->
<g id="edge62" class="edge"><title>40&#45;&gt;51</title>
<path fill="none" stroke="black" d="M1494.16,-465.766C1345.51,-457.169 1075.75,-440.293 845.792,-419 820.386,-416.647 792.568,-413.562 768.033,-410.666"/>
<polygon fill="black" stroke="black" points="768.438,-407.189 758.094,-409.482 767.61,-414.14 768.438,-407.189"/>
</g>
<!-- 41&#45;&gt;51 -->
<g id="edge63" class="edge"><title>41&#45;&gt;51</title>
<path fill="none" stroke="black" d="M483.463,-456.811C530.558,-444.823 595.814,-428.213 642.115,-416.427"/>
<polygon fill="black" stroke="black" points="643.159,-419.773 651.987,-413.914 641.432,-412.989 643.159,-419.773"/>
</g>
<!-- 42 -->
<g id="node43" class="node"><title>42</title>
<ellipse fill="orange" stroke="black" cx="794.792" cy="-257" rx="68.4888" ry="18"/>
<text text-anchor="middle" x="794.792" y="-253.3" font-family="Times,serif" font-size="14.00">&lt;first_rev_doc&gt;</text>
</g>
<!-- 42&#45;&gt;52 -->
<g id="edge65" class="edge"><title>42&#45;&gt;52</title>
<path fill="none" stroke="black" d="M843.263,-244.2C852.993,-242.182 863.18,-240.315 872.792,-239 1172.72,-197.973 1531.64,-188.628 1700.28,-186.553"/>
<polygon fill="black" stroke="black" points="1700.41,-190.052 1710.37,-186.435 1700.33,-183.052 1700.41,-190.052"/>
</g>
<!-- 60 -->
<g id="node61" class="node"><title>60</title>
<ellipse fill="orange" stroke="black" cx="1057.79" cy="-41" rx="36.2938" ry="18"/>
<text text-anchor="middle" x="1057.79" y="-37.3" font-family="Times,serif" font-size="14.00">session</text>
</g>
<!-- 42&#45;&gt;60 -->
<g id="edge64" class="edge"><title>42&#45;&gt;60</title>
<path fill="none" stroke="black" d="M816.37,-239.696C830.041,-229.299 848.05,-215.481 863.792,-203 925.331,-154.21 995.909,-94.721 1032.62,-63.4994"/>
<polygon fill="black" stroke="black" points="1035.01,-66.0652 1040.35,-56.9175 1030.47,-60.7353 1035.01,-66.0652"/>
</g>
<!-- 43&#45;&gt;42 -->
<g id="edge66" class="edge"><title>43&#45;&gt;42</title>
<path fill="none" stroke="black" d="M869.568,-311.411C856.537,-302.103 840.107,-290.367 825.968,-280.268"/>
<polygon fill="black" stroke="black" points="827.684,-277.193 817.512,-274.228 823.615,-282.889 827.684,-277.193"/>
</g>
<!-- 54 -->
<g id="node55" class="node"><title>54</title>
<ellipse fill="orange" stroke="black" cx="1106.79" cy="-113" rx="69.5877" ry="18"/>
<text text-anchor="middle" x="1106.79" y="-109.3" font-family="Times,serif" font-size="14.00">&lt;site_info_doc&gt;</text>
</g>
<!-- 44&#45;&gt;54 -->
<g id="edge67" class="edge"><title>44&#45;&gt;54</title>
<path fill="none" stroke="black" d="M1106.79,-166.697C1106.79,-158.983 1106.79,-149.712 1106.79,-141.112"/>
<polygon fill="black" stroke="black" points="1110.29,-141.104 1106.79,-131.104 1103.29,-141.104 1110.29,-141.104"/>
</g>
<!-- 45 -->
<g id="node46" class="node"><title>45</title>
<ellipse fill="orange" stroke="black" cx="1309.79" cy="-257" rx="84.485" ry="18"/>
<text text-anchor="middle" x="1309.79" y="-253.3" font-family="Times,serif" font-size="14.00">&lt;previous_rev_doc&gt;</text>
</g>
<!-- 45&#45;&gt;52 -->
<g id="edge69" class="edge"><title>45&#45;&gt;52</title>
<path fill="none" stroke="black" d="M1372.21,-244.823C1384.02,-242.808 1396.27,-240.783 1407.79,-239 1513.35,-222.659 1635.45,-206.463 1714.27,-196.359"/>
<polygon fill="black" stroke="black" points="1715.15,-199.775 1724.63,-195.035 1714.26,-192.832 1715.15,-199.775"/>
</g>
<!-- 45&#45;&gt;60 -->
<g id="edge68" class="edge"><title>45&#45;&gt;60</title>
<path fill="none" stroke="black" d="M1300.78,-239.069C1282.88,-206.885 1239.85,-136.4 1185.79,-95 1159.97,-75.2255 1125.71,-61.5537 1099.14,-53.0548"/>
<polygon fill="black" stroke="black" points="1099.95,-49.6426 1089.36,-50.0489 1097.89,-56.3335 1099.95,-49.6426"/>
</g>
<!-- 46&#45;&gt;45 -->
<g id="edge70" class="edge"><title>46&#45;&gt;45</title>
<path fill="none" stroke="black" d="M1668.73,-315.364C1588.27,-302.505 1464.44,-282.716 1385.29,-270.066"/>
<polygon fill="black" stroke="black" points="1385.82,-266.605 1375.39,-268.483 1384.71,-273.518 1385.82,-266.605"/>
</g>
<!-- 47&#45;&gt;45 -->
<g id="edge71" class="edge"><title>47&#45;&gt;45</title>
<path fill="none" stroke="black" d="M659.454,-320.642C836.129,-306.297 1209.96,-275.902 1216.79,-275 1224.34,-274.004 1232.21,-272.81 1240.04,-271.523"/>
<polygon fill="black" stroke="black" points="1240.62,-274.974 1249.9,-269.851 1239.45,-268.072 1240.62,-274.974"/>
</g>
<!-- 48 -->
<g id="node49" class="node"><title>48</title>
<ellipse fill="orange" stroke="black" cx="2880.79" cy="-257" rx="103.182" ry="18"/>
<text text-anchor="middle" x="2880.79" y="-253.3" font-family="Times,serif" font-size="14.00">&lt;previous_user_rev_doc&gt;</text>
</g>
<!-- 48&#45;&gt;52 -->
<g id="edge73" class="edge"><title>48&#45;&gt;52</title>
<path fill="none" stroke="black" d="M2807.27,-244.292C2792.88,-242.291 2777.89,-240.407 2763.79,-239 2445.36,-207.204 2065.89,-193.391 1892.17,-188.396"/>
<polygon fill="black" stroke="black" points="1892.13,-184.894 1882.04,-188.108 1891.93,-191.891 1892.13,-184.894"/>
</g>
<!-- 48&#45;&gt;60 -->
<g id="edge72" class="edge"><title>48&#45;&gt;60</title>
<path fill="none" stroke="black" d="M2802.52,-245.21C2786.72,-243.097 2770.23,-240.938 2754.79,-239 2099.22,-156.731 1299.6,-68.4699 1103.03,-46.9392"/>
<polygon fill="black" stroke="black" points="1103.38,-43.4571 1093.06,-45.848 1102.62,-50.4155 1103.38,-43.4571"/>
</g>
<!-- 49&#45;&gt;48 -->
<g id="edge74" class="edge"><title>49&#45;&gt;48</title>
<path fill="none" stroke="black" d="M2908.65,-310.697C2904.39,-302.644 2899.24,-292.894 2894.53,-283.982"/>
<polygon fill="black" stroke="black" points="2897.6,-282.31 2889.83,-275.104 2891.41,-285.581 2897.6,-282.31"/>
</g>
<!-- 50 -->
<g id="node51" class="node"><title>50</title>
<ellipse fill="orange" stroke="black" cx="892.792" cy="-113" rx="50.0912" ry="18"/>
<text text-anchor="middle" x="892.792" y="-109.3" font-family="Times,serif" font-size="14.00">&lt;rev_doc&gt;</text>
</g>
<!-- 50&#45;&gt;60 -->
<g id="edge76" class="edge"><title>50&#45;&gt;60</title>
<path fill="none" stroke="black" d="M923.828,-98.8335C951.589,-87.056 992.296,-69.7865 1021.54,-57.3782"/>
<polygon fill="black" stroke="black" points="1023.15,-60.499 1030.99,-53.3714 1020.42,-54.0549 1023.15,-60.499"/>
</g>
<!-- 61 -->
<g id="node62" class="node"><title>61</title>
<ellipse fill="orange" stroke="black" cx="892.792" cy="-41" rx="33.2948" ry="18"/>
<text text-anchor="middle" x="892.792" y="-37.3" font-family="Times,serif" font-size="14.00">rev_id</text>
</g>
<!-- 50&#45;&gt;61 -->
<g id="edge75" class="edge"><title>50&#45;&gt;61</title>
<path fill="none" stroke="black" d="M892.792,-94.6966C892.792,-86.9827 892.792,-77.7125 892.792,-69.1124"/>
<polygon fill="black" stroke="black" points="896.292,-69.1043 892.792,-59.1043 889.292,-69.1044 896.292,-69.1043"/>
</g>
<!-- 51&#45;&gt;47 -->
<g id="edge77" class="edge"><title>51&#45;&gt;47</title>
<path fill="none" stroke="black" d="M670.263,-384.638C651.986,-374.796 628.019,-361.891 607.968,-351.095"/>
<polygon fill="black" stroke="black" points="609.529,-347.96 599.065,-346.301 606.211,-354.123 609.529,-347.96"/>
</g>
<!-- 53 -->
<g id="node54" class="node"><title>53</title>
<ellipse fill="orange" stroke="black" cx="786.792" cy="-185" rx="67.6881" ry="18"/>
<text text-anchor="middle" x="786.792" y="-181.3" font-family="Times,serif" font-size="14.00">&lt;revision_text&gt;</text>
</g>
<!-- 51&#45;&gt;53 -->
<g id="edge78" class="edge"><title>51&#45;&gt;53</title>
<path fill="none" stroke="black" d="M696.663,-382.686C693.706,-351.661 691.377,-285.497 717.792,-239 725.057,-226.212 736.777,-215.485 748.513,-207.1"/>
<polygon fill="black" stroke="black" points="750.639,-209.889 756.997,-201.414 746.742,-204.074 750.639,-209.889"/>
</g>
<!-- 52&#45;&gt;50 -->
<g id="edge79" class="edge"><title>52&#45;&gt;50</title>
<path fill="none" stroke="black" d="M1713.88,-179.824C1572.78,-172.373 1277.03,-155.262 1027.79,-131 1001.77,-128.467 973.01,-124.946 948.748,-121.765"/>
<polygon fill="black" stroke="black" points="949.02,-118.271 938.646,-120.427 948.1,-125.21 949.02,-118.271"/>
</g>
<!-- 53&#45;&gt;50 -->
<g id="edge80" class="edge"><title>53&#45;&gt;50</title>
<path fill="none" stroke="black" d="M810.845,-168.116C825.792,-158.246 845.168,-145.45 861.327,-134.779"/>
<polygon fill="black" stroke="black" points="863.509,-137.533 869.925,-129.101 859.651,-131.691 863.509,-137.533"/>
</g>
<!-- 54&#45;&gt;60 -->
<g id="edge81" class="edge"><title>54&#45;&gt;60</title>
<path fill="none" stroke="black" d="M1094.93,-95.055C1088.95,-86.5048 1081.57,-75.975 1074.98,-66.5561"/>
<polygon fill="black" stroke="black" points="1077.81,-64.4922 1069.21,-58.307 1072.07,-68.5065 1077.81,-64.4922"/>
</g>
<!-- 55 -->
<g id="node56" class="node"><title>55</title>
<ellipse fill="orange" stroke="black" cx="682.792" cy="-473" rx="69.5877" ry="18"/>
<text text-anchor="middle" x="682.792" y="-469.3" font-family="Times,serif" font-size="14.00">&lt;tokens_added&gt;</text>
</g>
<!-- 55&#45;&gt;51 -->
<g id="edge82" class="edge"><title>55&#45;&gt;51</title>
<path fill="none" stroke="black" d="M686.747,-454.697C688.511,-446.983 690.63,-437.712 692.595,-429.112"/>
<polygon fill="black" stroke="black" points="696.067,-429.633 694.883,-419.104 689.242,-428.073 696.067,-429.633"/>
</g>
<!-- 56 -->
<g id="node57" class="node"><title>56</title>
<ellipse fill="orange" stroke="black" cx="849.792" cy="-473" rx="79.8859" ry="18"/>
<text text-anchor="middle" x="849.792" y="-469.3" font-family="Times,serif" font-size="14.00">&lt;tokens_removed&gt;</text>
</g>
<!-- 56&#45;&gt;51 -->
<g id="edge83" class="edge"><title>56&#45;&gt;51</title>
<path fill="none" stroke="black" d="M816.281,-456.465C793.806,-446.046 764.054,-432.254 740.113,-421.155"/>
<polygon fill="black" stroke="black" points="741.461,-417.923 730.917,-416.892 738.517,-424.273 741.461,-417.923"/>
</g>
<!-- 57 -->
<g id="node58" class="node"><title>57</title>
<ellipse fill="orange" stroke="black" cx="934.792" cy="-257" rx="53.0913" ry="18"/>
<text text-anchor="middle" x="934.792" y="-253.3" font-family="Times,serif" font-size="14.00">&lt;user_doc&gt;</text>
</g>
<!-- 57&#45;&gt;52 -->
<g id="edge85" class="edge"><title>57&#45;&gt;52</title>
<path fill="none" stroke="black" d="M972.888,-244.26C980.729,-242.21 988.978,-240.316 996.792,-239 1248.04,-196.677 1548.99,-187.781 1700.12,-186.148"/>
<polygon fill="black" stroke="black" points="1700.34,-189.646 1710.3,-186.047 1700.27,-182.647 1700.34,-189.646"/>
</g>
<!-- 57&#45;&gt;60 -->
<g id="edge84" class="edge"><title>57&#45;&gt;60</title>
<path fill="none" stroke="black" d="M953.264,-239.74C963.588,-229.903 976.088,-216.653 984.792,-203 1012.57,-159.437 1005.46,-141.589 1027.79,-95 1032.22,-85.7576 1037.6,-75.9153 1042.57,-67.2526"/>
<polygon fill="black" stroke="black" points="1045.72,-68.8001 1047.74,-58.3999 1039.68,-65.2694 1045.72,-68.8001"/>
</g>
<!-- 58&#45;&gt;57 -->
<g id="edge86" class="edge"><title>58&#45;&gt;57</title>
<path fill="none" stroke="black" d="M1325.11,-322.931C1251.66,-315.243 1113.09,-298.949 996.792,-275 992.432,-274.102 987.924,-273.071 983.422,-271.97"/>
<polygon fill="black" stroke="black" points="984.188,-268.554 973.634,-269.474 982.459,-275.337 984.188,-268.554"/>
</g>
</g>
</svg>
